<?xml version="1.0" encoding="UTF-8"?>
<svg version="1.1" xmlns="http://www.w3.org/2000/svg" width="1600" height="900">
<path d="M0 0 C528 0 1056 0 1600 0 C1600 297 1600 594 1600 900 C1072 900 544 900 0 900 C0 603 0 306 0 0 Z " fill="#FEFEFE" transform="translate(0,0)"/>
<path d="M0 0 C4.59437335 1.69361214 8.81901966 3.94267362 13.125 6.25 C13.82109375 6.61996094 14.5171875 6.98992188 15.234375 7.37109375 C16.69759954 8.15059337 18.15904222 8.9334449 19.61889648 9.71923828 C21.29232679 10.61935264 22.96924925 11.51299006 24.64868164 12.40185547 C31.05930406 15.83012274 37.16036591 19.56314848 43.1875 23.625 C44.09314697 24.23255127 44.99879395 24.84010254 45.93188477 25.46606445 C54.17096405 31.03693341 62.13662419 36.91430434 70 43 C71.23693435 43.94667314 72.47391319 44.89328817 73.7109375 45.83984375 C80.16614675 50.81279064 86.34212632 55.95568049 92.3046875 61.515625 C94.45098707 63.4939533 96.62133498 65.4219961 98.82421875 67.3359375 C102.94556468 70.92880648 106.95540316 74.62894403 110.9375 78.375 C111.63480225 79.03056885 112.33210449 79.6861377 113.05053711 80.36157227 C119.98933553 86.90469848 126.79866155 93.475168 133.00390625 100.7265625 C135.0229012 103.02608317 137.10843762 105.25471407 139.20654297 107.48193359 C144.97911506 113.62704751 150.28877828 120.00105028 155.42578125 126.68359375 C157.6617026 129.59004317 160.00223155 132.39117725 162.375 135.1875 C168.30365518 142.37439495 173.37372884 150.1751635 178.57275391 157.89599609 C180.2821952 160.4160038 182.0410831 162.89825921 183.8125 165.375 C190.93573466 175.52604694 196.99211534 186.34672147 202.9921875 197.18408203 C203.87304589 198.77124887 204.76382268 200.35290291 205.65625 201.93359375 C209.52023518 208.84971615 212.86702876 215.97656813 216.15625 223.17724609 C216.9272094 224.8427504 217.72774721 226.49448087 218.53125 228.14453125 C223.19374246 237.80432281 226.6285044 247.83467642 230 258 C230.24137695 258.72687012 230.48275391 259.45374023 230.73144531 260.20263672 C249.99417773 318.74866679 250.92933094 385.9807382 223.125 442.125 C210.91877394 466.07344733 195.98829256 488.1095818 177.38330078 507.53564453 C175.57165922 509.45343947 173.84267649 511.43546543 172.125 513.4375 C165.6352278 520.93067837 165.6352278 520.93067837 162 524 C161.34 524 160.68 524 160 524 C160.10501831 522.59379395 160.10501831 522.59379395 160.2121582 521.15917969 C160.8940477 511.31247837 161.18631376 501.51367044 161.18530273 491.64404297 C161.18751121 489.23778122 161.20583013 486.83196399 161.22460938 484.42578125 C161.25576203 475.71822293 160.70367908 467.56913596 159 459 C158.74127287 456.83435813 158.48960348 454.667841 158.25 452.5 C156.08452183 437.29129287 150.66769014 422.77085041 144 409 C143.70931641 408.38350586 143.41863281 407.76701172 143.11914062 407.13183594 C137.82562161 396.01310892 130.73812061 386.53712256 123 377 C122.54568604 376.43603516 122.09137207 375.87207031 121.62329102 375.29101562 C118.11336829 370.9936401 114.25120501 367.53521259 110 364 C109.22398437 363.34773438 108.44796875 362.69546875 107.6484375 362.0234375 C101.72443045 357.15258726 95.56896288 352.9500211 89 349 C87.9171875 348.33871094 86.834375 347.67742187 85.71875 346.99609375 C77.46151666 342.04809733 69.05119812 338.25765105 60 335 C58.989375 334.63132812 57.97875 334.26265625 56.9375 333.8828125 C53.65036521 332.77854066 50.35820067 331.86547877 47 331 C46.32404785 330.81663086 45.6480957 330.63326172 44.95166016 330.44433594 C19.12528309 323.70999275 -13.27851005 323.97680705 -39 331 C-39.95503418 331.2578125 -40.91006836 331.515625 -41.89404297 331.78125 C-61.59376193 337.30650797 -81.09699067 345.93490143 -97 359 C-97.86882812 359.6703125 -98.73765625 360.340625 -99.6328125 361.03125 C-125.29884634 381.21308857 -142.88584213 408.74181413 -152 440 C-152.36867188 441.25554687 -152.73734375 442.51109375 -153.1171875 443.8046875 C-160.62361934 470.59771795 -160.36369146 499.43766928 -158 527 C-161.13770373 523.19454696 -163.9623149 519.23104584 -166.6875 515.125 C-167.34105469 514.14152588 -167.34105469 514.14152588 -168.0078125 513.13818359 C-172.14613432 506.86022944 -176.03041051 500.4469887 -179.83935547 493.96533203 C-181.04936219 491.91641446 -182.27534198 489.8776816 -183.50390625 487.83984375 C-192.5353981 472.79483468 -199.89184234 457.52187182 -206.17626953 441.13378906 C-206.83675602 439.42286675 -207.52182566 437.72144324 -208.21484375 436.0234375 C-211.90170323 426.69523882 -213.87266338 416.77538092 -216 407 C-216.25136719 405.87722656 -216.50273437 404.75445312 -216.76171875 403.59765625 C-222.27969866 374.44237234 -215.81302786 344.06535071 -200.17578125 319.0859375 C-198.51170605 316.67022384 -196.78352728 314.32849395 -195 312 C-194.505 311.31421875 -194.01 310.6284375 -193.5 309.921875 C-189.24648757 304.17963323 -184.38354886 299.05741269 -179.47973633 293.87597656 C-175.39393101 289.54390798 -171.46585967 285.11252692 -167.625 280.5625 C-160.96964264 272.70407967 -153.84493238 265.67148871 -146 259 C-145.51869629 258.5884668 -145.03739258 258.17693359 -144.54150391 257.75292969 C-135.59688645 250.10659107 -126.5473106 242.6399946 -117.12133789 235.59057617 C-105.9579652 227.22029501 -94.93876698 218.66099381 -84 210 C-83.13117188 209.31550781 -82.26234375 208.63101563 -81.3671875 207.92578125 C-67.90951615 197.27136327 -67.90951615 197.27136327 -55.47265625 185.47265625 C-54 184 -54 184 -51 181.5625 C-47.2377595 178.34891957 -44.17594589 174.7823765 -41 171 C-40.20078125 170.06542969 -39.4015625 169.13085938 -38.578125 168.16796875 C-22.31184707 148.96883161 -10.27331476 128.07380078 -3 104 C-2.42765625 102.14761719 -2.42765625 102.14761719 -1.84375 100.2578125 C6.44937957 71.54599269 5.74130108 40.86639194 1.36376953 11.53857422 C0.81394322 7.70159838 0.40636745 3.85457276 0 0 Z " fill="#F28001" transform="translate(279,22)"/>
<path d="M0 0 C1.76497833 -0.00855011 1.76497833 -0.00855011 3.56561279 -0.01727295 C6.04991776 -0.02667744 8.53423494 -0.03323871 11.01855469 -0.03710938 C14.74437439 -0.0467393 18.46962362 -0.07777626 22.1953125 -0.109375 C36.08484207 -0.17019358 49.455309 0.55745571 63.16221619 2.82565308 C66.48807615 3.35210942 69.82535955 3.76635781 73.16629028 4.18438721 C93.00732793 6.6870038 113.01532975 12.7410063 131.546875 20.203125 C131.66381835 40.89175758 131.75191705 61.58033544 131.80593586 82.2692318 C131.83168749 91.87605227 131.86677971 101.48266705 131.92407227 111.08935547 C131.97400052 119.4652275 132.00618812 127.84095051 132.01731747 136.21696723 C132.02382033 140.64965813 132.03903995 145.08192284 132.07552528 149.51447678 C132.109634 153.6924146 132.11989824 157.86975339 132.11241341 162.04781723 C132.11378135 163.57557946 132.12362529 165.10336312 132.14290237 166.63100433 C132.2501472 175.57351254 131.55894161 182.56014315 126.546875 190.203125 C125.88945312 191.22664062 125.23203125 192.25015625 124.5546875 193.3046875 C104.7336115 219.86986405 75.79294011 235.35729444 43.08984375 240.23828125 C0.47584205 245.84603684 -48.37179987 242.54808806 -84.1484375 216.046875 C-94.82576559 207.50501253 -105.69857416 197.26494301 -108.453125 183.203125 C-108.54321021 180.95622082 -108.57508826 178.70677755 -108.57337952 176.45806885 C-108.57423394 175.78086501 -108.57508837 175.10366117 -108.57596868 174.405936 C-108.57761502 172.13811006 -108.57211597 169.87035818 -108.56665039 167.60253906 C-108.56636831 165.97635398 -108.56652666 164.35016877 -108.5670929 162.72398376 C-108.56738006 158.30906104 -108.56149641 153.89416542 -108.55451894 149.479249 C-108.54827191 144.8654602 -108.54768053 140.25167079 -108.54649353 135.63787842 C-108.5433842 126.90088649 -108.53517616 118.16390707 -108.52514404 109.42692065 C-108.51397056 99.4802232 -108.50846933 89.53352515 -108.50344861 79.58682299 C-108.49299323 59.12558335 -108.47540148 38.66435496 -108.453125 18.203125 C-106.87715859 17.72967554 -105.30113902 17.25640302 -103.72509766 16.78320312 C-102.84745758 16.51963013 -101.9698175 16.25605713 -101.06558228 15.98449707 C-97.32647797 14.86615087 -93.58200685 13.77074278 -89.828125 12.703125 C-89.14878906 12.50332031 -88.46945313 12.30351563 -87.76953125 12.09765625 C-74.09953473 8.23064822 -59.89028316 6.44186439 -45.85107422 4.46826172 C-43.0602411 4.07560885 -40.27032532 3.67687033 -37.48046875 3.27734375 C-35.67192542 3.02047806 -33.86333334 2.76395541 -32.0546875 2.5078125 C-31.23779449 2.39114227 -30.42090149 2.27447205 -29.57925415 2.15426636 C-19.68613256 0.76948458 -9.99531603 0.03846666 0 0 Z " fill="#52518A" transform="translate(268.453125,636.796875)"/>
<path d="M0 0 C0.76005341 -0.00100708 1.52010681 -0.00201416 2.30319214 -0.00305176 C14.03207819 0.00745897 25.2108553 0.68274867 36.6875 3.25 C38.17304784 3.55531701 39.65872735 3.85999401 41.14453125 4.1640625 C64.96899135 9.22842618 87.31656347 20.16278115 101.01171875 40.91796875 C106.26444972 51.36221004 107.25617403 61.06498125 107.14160156 72.57519531 C107.14047081 74.18285595 107.14111138 75.79051865 107.14337158 77.3981781 C107.14451078 81.72602687 107.12113152 86.0534246 107.09307575 90.38116932 C107.06792841 94.91748021 107.06570965 99.4538035 107.06097412 103.99017334 C107.04858328 112.5640782 107.01581482 121.13777701 106.97557616 129.71159148 C106.93073673 139.47949029 106.90884091 149.24739937 106.88879442 159.01537561 C106.84707838 179.09369837 106.77680268 199.17183616 106.6875 219.25 C102.82132667 217.97373795 99.00012171 216.62002576 95.1862793 215.19506836 C80.05834029 209.6351969 64.43760481 206.46439231 48.625 203.5 C47.53920654 203.28915771 46.45341309 203.07831543 45.3347168 202.86108398 C29.13741367 199.94492378 12.57672275 200.08050011 -3.83178711 200.11962891 C-6.50965982 200.12501945 -9.18736646 200.11962171 -11.86523438 200.11328125 C-28.1221191 200.10284446 -43.72279248 200.71533323 -59.66967773 204.04150391 C-61.87528546 204.50005935 -64.08443029 204.93676354 -66.29492188 205.37109375 C-78.05201328 207.73354521 -89.28493222 211.18731335 -100.625 215.0625 C-104.3125 216.25 -104.3125 216.25 -107.3125 216.25 C-107.42950502 195.20475635 -107.51757214 174.15956664 -107.57156086 153.11406326 C-107.59729947 143.34139354 -107.63236661 133.56892639 -107.68969727 123.79638672 C-107.73966558 115.27473425 -107.77182256 106.75322854 -107.78294247 98.23143363 C-107.78943858 93.72266953 -107.80461478 89.21432516 -107.84115028 84.70569611 C-107.8753225 80.45388502 -107.88551062 76.20266284 -107.87803841 71.95072746 C-107.87940355 70.39800493 -107.88920915 68.8452608 -107.90852737 67.29265785 C-108.0856098 52.31414015 -104.04512516 41.57744248 -93.875 30.625 C-93.029375 29.84125 -92.18375 29.0575 -91.3125 28.25 C-90.85875 27.80269531 -90.405 27.35539062 -89.9375 26.89453125 C-67.11329062 5.61095601 -29.88394007 0.02739908 0 0 Z " fill="#0089E0" transform="translate(280.3125,391.75)"/>
<path d="M0 0 C12.87 0 25.74 0 39 0 C43.39634973 26.51991614 43.39634973 26.51991614 43.7265625 35.15625 C44.11427382 39.18844772 45.05953402 43.0649778 46 47 C47.75489243 36.55254038 49.33111572 26.1414047 50.26513672 15.5847168 C50.77224155 10.16585424 51.79686997 5.41408514 53 0 C65.54 0 78.08 0 91 0 C91 37.29 91 74.58 91 113 C82.42 113 73.84 113 65 113 C64.67 93.53 64.34 74.06 64 54 C60.76408899 73.94034035 60.76408899 73.94034035 58.2265625 93.92919922 C57.80197548 97.80996119 57.33464179 101.68576472 56.875 105.5625 C56.441875 109.2440625 56.441875 109.2440625 56 113 C49.73 113 43.46 113 37 113 C35.63909072 107.55636289 34.60972447 102.62881535 34.0625 97.125 C33.40564947 91.0410566 32.55229172 85.02789415 31.5 79 C30.32333902 72.23769914 29.39119575 65.4795884 28.64648438 58.65625 C28.21764844 54.73104899 27.65065564 50.90393383 27 47 C26.67 68.78 26.34 90.56 26 113 C17.42 113 8.84 113 0 113 C0 75.71 0 38.42 0 0 Z " fill="#55538A" transform="translate(768,733)"/>
<path d="M0 0 C7.88605454 6.27724196 10.3938389 13.72685235 11.76953125 23.45703125 C12.03731486 27.72778479 12.05040705 31.98356619 12.03515625 36.26171875 C12.0370697 37.46208771 12.03898315 38.66245667 12.04095459 39.89920044 C12.04230893 42.42547822 12.03866527 44.95176314 12.03027344 47.47802734 C12.01958252 51.3136382 12.03018507 55.14877872 12.04296875 58.984375 C12.04164666 61.45182394 12.03908323 63.91927258 12.03515625 66.38671875 C12.03920471 67.51834442 12.04325317 68.64997009 12.04742432 69.81588745 C11.97893299 81.63589227 11.38563969 94.52711529 2.79296875 103.52734375 C-7.44995705 112.17772985 -19.39127489 112.53792971 -32.23046875 111.45703125 C-35.54628011 110.88365368 -38.26537411 110.03543292 -41.23046875 108.45703125 C-41.84921875 108.12832031 -42.46796875 107.79960938 -43.10546875 107.4609375 C-49.59096815 103.42147774 -53.83519565 96.60887835 -56.23046875 89.45703125 C-56.50462341 86.11372375 -56.50462341 86.11372375 -56.53686523 82.25512695 C-56.54518875 81.54869553 -56.55351227 80.8422641 -56.56208801 80.11442566 C-56.58611099 77.78716452 -56.59495215 75.46018436 -56.6015625 73.1328125 C-56.6105373 71.50481589 -56.61965929 69.87682008 -56.62892151 68.24882507 C-56.64539499 64.83684287 -56.65310816 61.42495857 -56.65600586 58.01293945 C-56.66137671 53.66305715 -56.69900912 49.3141092 -56.74475002 44.96448994 C-56.77465409 41.60048661 -56.78173235 38.2367042 -56.78273201 34.87257957 C-56.78691076 33.27034429 -56.79924981 31.66810691 -56.82024956 30.0660038 C-56.94275313 19.90853759 -56.57541272 11.11722704 -49.22239685 3.33052063 C-36.77785901 -8.35010424 -14.05289811 -9.72135683 0 0 Z " fill="#54538A" transform="translate(794.23046875,562.54296875)"/>
<path d="M0 0 C9.9 0 19.8 0 30 0 C30 13.53 30 27.06 30 41 C32.64 41 35.28 41 38 41 C38 27.47 38 13.94 38 0 C47.9 0 57.8 0 68 0 C68 37.62 68 75.24 68 114 C58.1 114 48.2 114 38 114 C38 98.49 38 82.98 38 67 C35.36 67 32.72 67 30 67 C30 82.51 30 98.02 30 114 C20.1 114 10.2 114 0 114 C0 76.38 0 38.76 0 0 Z " fill="#56558B" transform="translate(586,558)"/>
<path d="M0 0 C9.9 0 19.8 0 30 0 C30 13.2 30 26.4 30 40 C32.64 40 35.28 40 38 40 C38 26.8 38 13.6 38 0 C47.9 0 57.8 0 68 0 C68 37.29 68 74.58 68 113 C58.1 113 48.2 113 38 113 C38 97.49 38 81.98 38 66 C35.36 66 32.72 66 30 66 C30 81.51 30 97.02 30 113 C20.1 113 10.2 113 0 113 C0 75.71 0 38.42 0 0 Z " fill="#55548A" transform="translate(539,733)"/>
<path d="M0 0 C51.2 0 51.2 0 59 6.5 C59.66 7.325 60.32 8.15 61 9 C61.556875 9.639375 62.11375 10.27875 62.6875 10.9375 C66.63677888 17.14350967 66.39852253 23.76377667 66.4375 30.875 C66.47037109 31.92558594 66.50324219 32.97617187 66.53710938 34.05859375 C66.58359133 40.81115374 65.80276812 45.97091497 61 51 C58.66207833 52.4302508 56.6436057 53.17063351 54 54 C54.79664063 54.54527344 54.79664063 54.54527344 55.609375 55.1015625 C56.31578125 55.60429688 57.0221875 56.10703125 57.75 56.625 C58.44609375 57.11226562 59.1421875 57.59953125 59.859375 58.1015625 C63.26836409 61.12486304 65.67199047 63.78933275 66.34918213 68.35336304 C66.4622016 71.19959295 66.44959081 74.01931142 66.390625 76.8671875 C66.38496521 77.90191193 66.37930542 78.93663635 66.37347412 80.00271606 C66.35115852 83.29395629 66.30096966 86.58409114 66.25 89.875 C66.22992884 92.1119634 66.21167915 94.34894393 66.1953125 96.5859375 C66.15471815 102.05805579 66.07641556 107.52779679 66 113 C57.09 113 48.18 113 39 113 C38.95101562 109.71417969 38.90203125 106.42835938 38.8515625 103.04296875 C38.79757538 99.8657571 38.74025894 96.6886218 38.68261719 93.51147461 C38.64429983 91.30092032 38.60945186 89.09030308 38.578125 86.87963867 C38.53253448 83.70468629 38.47452997 80.53016828 38.4140625 77.35546875 C38.40251129 76.36475876 38.39096008 75.37404877 38.37905884 74.35331726 C38.35918915 73.43258926 38.33931946 72.51186127 38.31884766 71.56323242 C38.30552399 70.7527092 38.29220032 69.94218597 38.2784729 69.10710144 C38.11776223 66.69899809 38.11776223 66.69899809 36 64 C34.02 63.34 32.04 62.68 30 62 C30 78.83 30 95.66 30 113 C20.1 113 10.2 113 0 113 C0 75.71 0 38.42 0 0 Z " fill="#55538A" transform="translate(691,733)"/>
<path d="M0 0 C9.9 0 19.8 0 30 0 C30.33 31.02 30.66 62.04 31 94 C32.32 94.33 33.64 94.66 35 95 C37.66524344 91.05811201 37.30704475 86.76307862 37.31884766 82.19238281 C37.33391609 80.86014427 37.33391609 80.86014427 37.34928894 79.50099182 C37.38015392 76.56837607 37.39716535 73.63585175 37.4140625 70.703125 C37.43277147 68.66859143 37.45234468 66.63406563 37.4727478 64.59954834 C37.52410355 59.24681177 37.56371092 53.89405003 37.60089111 48.54119873 C37.64090912 43.07818356 37.69201153 37.61527339 37.7421875 32.15234375 C37.83898765 21.43496221 37.92235498 10.71753745 38 0 C47.57 0 57.14 0 67 0 C67.09055812 11.95297492 67.16386426 23.90572003 67.20724869 35.85896111 C67.22807654 41.41001053 67.2563064 46.960812 67.30175781 52.51171875 C67.34538683 57.87393743 67.36917319 63.23591838 67.37950897 68.59830093 C67.38686978 70.63873153 67.40124345 72.67914988 67.42292023 74.71947861 C67.54176165 86.37452106 67.56674893 95.66058208 61.25 105.8125 C53.29148889 113.54994135 44.33756727 115.35598292 33.5625 115.3125 C32.76779297 115.32861328 31.97308594 115.34472656 31.15429688 115.36132812 C21.78601119 115.36895081 13.75733271 112.60117587 7 106 C1.49413249 98.99797285 -0.15036535 93.92659499 -0.11352539 85.03051758 C-0.11367142 84.11324387 -0.11381744 83.19597015 -0.1139679 82.25090027 C-0.11327057 79.21541997 -0.10548656 76.18000084 -0.09765625 73.14453125 C-0.09579143 71.04131606 -0.09436783 68.93810043 -0.09336853 66.83488464 C-0.08954839 61.29630334 -0.07972237 55.7577482 -0.06866455 50.21917725 C-0.05843964 44.56864781 -0.05386859 38.91811415 -0.04882812 33.26757812 C-0.03809967 22.17837206 -0.02050691 11.0891923 0 0 Z " fill="#54538A" transform="translate(1082,733)"/>
<path d="M0 0 C7.92 0 15.84 0 24 0 C30.1049644 14.00550657 34.50636143 28.39567465 39 43 C39.33 28.81 39.66 14.62 40 0 C48.25 0 56.5 0 65 0 C65 37.29 65 74.58 65 113 C56.42 113 47.84 113 39 113 C38.48050781 111.2365625 37.96101563 109.473125 37.42578125 107.65625 C31.44834934 87.25539646 31.44834934 87.25539646 25 67 C24.67 82.18 24.34 97.36 24 113 C16.08 113 8.16 113 0 113 C0 75.71 0 38.42 0 0 Z " fill="#53528A" transform="translate(468,559)"/>
<path d="M0 0 C0.76166977 0.00222061 1.52333954 0.00444122 2.30809021 0.00672913 C3.16890701 0.00680466 4.02972382 0.00688019 4.91662598 0.00695801 C5.8520372 0.01211929 6.78744843 0.01728058 7.75120544 0.02259827 C8.70422043 0.02401321 9.65723541 0.02542816 10.63912964 0.02688599 C13.69605085 0.032503 16.75289996 0.04505836 19.80979919 0.05775452 C21.87685543 0.06276733 23.94391281 0.06733061 26.01097107 0.07142639 C31.08977507 0.08247795 36.16852489 0.09975397 41.24729919 0.12025452 C41.35799744 0.81997375 41.46869568 1.51969299 41.58274841 2.24061584 C42.0946456 5.47153403 42.6084627 8.70214421 43.12229919 11.93275452 C43.29632263 13.03296936 43.47034607 14.1331842 43.64964294 15.26673889 C44.48359617 20.50211193 45.34679452 25.72551805 46.32151794 30.93666077 C47.13969487 35.36952404 47.71686198 39.76197033 48.18479919 44.24525452 C48.82502249 50.08598015 49.67413771 55.84374746 50.74729919 61.62025452 C51.92693491 67.97348763 52.7849724 74.30603654 53.47337341 80.72987366 C54.12196387 86.56516512 55.10521223 92.3099868 56.28245544 98.06166077 C57.36765285 103.67783706 57.24729919 108.11658211 57.24729919 114.12025452 C47.34729919 114.12025452 37.44729919 114.12025452 27.24729919 114.12025452 C26.91729919 107.52025452 26.58729919 100.92025452 26.24729919 94.12025452 C22.61729919 94.12025452 18.98729919 94.12025452 15.24729919 94.12025452 C15.26792419 95.56400452 15.28854919 97.00775452 15.30979919 98.49525452 C15.38606477 103.83384452 14.79059328 108.68731369 14.24729919 114.12025452 C4.01729919 114.12025452 -6.21270081 114.12025452 -16.75270081 114.12025452 C-16.17993659 106.67431972 -15.69067017 100.48049606 -14.28785706 93.39369202 C-13.57066509 89.00678059 -13.16667652 84.60719648 -12.75270081 80.18275452 C-12.15593815 73.81728615 -11.38914211 67.5705158 -10.24879456 61.27650452 C-9.61064536 57.21646867 -9.2158795 53.14705829 -8.81520081 49.05775452 C-8.09453407 41.74574782 -7.07332865 34.53220287 -5.86280823 27.28651428 C-4.76114925 20.5482322 -4.02107921 13.79551933 -3.39918518 6.99720764 C-2.754932 0.18901858 -2.754932 0.18901858 0 0 Z " fill="#55548B" transform="translate(675.7527008056641,557.8797454833984)"/>
<path d="M0 0 C14.19 0 28.38 0 43 0 C44.78564416 9.52343549 46.55017621 18.99184216 48 28.5625 C48.16878662 29.66456787 48.33757324 30.76663574 48.51147461 31.90209961 C49.77200659 40.23545085 50.87208296 48.58370669 51.92578125 56.9453125 C52.63963958 62.51651119 53.47946278 68.03955377 54.5 73.5625 C55.72104223 80.18766488 56.75230048 86.82835344 57.6875 93.5 C57.81898438 94.4082251 57.95046875 95.3164502 58.0859375 96.25219727 C58.20582031 97.12803467 58.32570313 98.00387207 58.44921875 98.90625 C58.55580811 99.67259766 58.66239746 100.43894531 58.7722168 101.22851562 C59.09368547 105.13989007 59 109.07543733 59 113 C49.1 113 39.2 113 29 113 C28.30436846 106.04368461 27.90170757 99.88047017 28 93 C24.37 93 20.74 93 17 93 C16.67 99.6 16.34 106.2 16 113 C5.77 113 -4.46 113 -15 113 C-13.87084245 97.19179434 -13.87084245 97.19179434 -12.625 90.1875 C-11.16059886 81.48179392 -10.07801087 72.75097521 -9.09033203 63.97924805 C-8.391477 57.8754185 -7.48914245 51.84332125 -6.44848633 45.78881836 C-5.83176631 41.95387402 -5.46752331 38.11718453 -5.125 34.25 C-4.018156 22.7309335 -1.97669905 11.39896452 0 0 Z " fill="#55548A" transform="translate(627,733)"/>
<path d="M0 0 C14.19 0 28.38 0 43 0 C49.26165613 33.62237094 49.26165613 33.62237094 50.51171875 45.93359375 C51.18148401 52.04154501 52.37672733 58.07261551 53.46484375 64.11669922 C54.84981508 71.90070318 55.96584023 79.70115422 56.98925781 87.54003906 C57.7022371 92.96384531 58.52292988 98.33076974 59.66796875 103.68359375 C60.10887954 106.75959493 60 109.89255964 60 113 C49.77 113 39.54 113 29 113 C29 106.4 29 99.8 29 93 C25.04 93 21.08 93 17 93 C17.01160156 94.02480469 17.02320313 95.04960938 17.03515625 96.10546875 C17.04454022 97.466144 17.05363977 98.82682124 17.0625 100.1875 C17.07087891 100.86103516 17.07925781 101.53457031 17.08789062 102.22851562 C17.10654779 106.05323378 16.75942257 109.20288716 16 113 C5.77 113 -4.46 113 -15 113 C-14.125 105.625 -14.125 105.625 -13.82421875 103.1003418 C-13.37549458 99.30502269 -12.94304467 95.50983528 -12.5625 91.70703125 C-11.68994446 83.11206236 -10.47808131 74.63796582 -9 66.125 C-7.62658186 58.19637799 -6.55643881 50.33988417 -5.86376953 42.32568359 C-4.55484003 28.15265123 -2.12034034 14.06120435 0 0 Z " fill="#55548B" transform="translate(879,733)"/>
<path d="M0 0 C14.19 0 28.38 0 43 0 C45.2737467 12.74922259 47.42274392 25.49190517 49.28369141 38.30737305 C50.40160667 45.99290651 51.55724279 53.67158756 52.73828125 61.34765625 C52.96989708 62.85607841 52.96989708 62.85607841 53.20619202 64.39497375 C54.14334387 70.49810425 54.14334387 70.49810425 55.08609009 76.60037231 C56.96282422 88.71549599 58.64606219 100.81455969 60 113 C49.77 113 39.54 113 29 113 C28.22857097 106.05713871 27.91260317 99.90434993 28 93 C24.37 93 20.74 93 17 93 C17.01160156 94.02480469 17.02320313 95.04960938 17.03515625 96.10546875 C17.04454022 97.466144 17.05363977 98.82682124 17.0625 100.1875 C17.07087891 100.86103516 17.07925781 101.53457031 17.08789062 102.22851562 C17.10654779 106.05323378 16.75942257 109.20288716 16 113 C5.77 113 -4.46 113 -15 113 C-13.43871659 97.05847466 -11.52415742 81.45718167 -8.77124023 65.68212891 C-7.40513825 57.75136428 -6.35852978 49.87851684 -5.66992188 41.86279297 C-5.12052612 35.63761579 -4.13882376 29.54631086 -3.0390625 23.3972168 C-2.01233447 17.50477698 -1.50461696 11.70113092 -1.2109375 5.72265625 C-1 3 -1 3 0 0 Z " fill="#54538A" transform="translate(1355,733)"/>
<path d="M0 0 C0.79341797 0.00894287 1.58683594 0.01788574 2.40429688 0.02709961 C13.02503407 0.23798462 19.81594905 2.14239577 28.0625 9.25 C35.87218219 17.51585522 35.32807891 26.8934033 35.1875 37.6875 C35.14625 42.163125 35.105 46.63875 35.0625 51.25 C25.4925 51.25 15.9225 51.25 6.0625 51.25 C6.0625 41.35 6.0625 31.45 6.0625 21.25 C3.4225 20.92 0.7825 20.59 -1.9375 20.25 C-4.19581261 23.86068726 -4.19082952 26.87706103 -4.19628906 31.08227539 C-4.1997937 31.76079056 -4.20329834 32.43930573 -4.20690918 33.13838196 C-4.21569178 35.37491164 -4.20989043 37.61112351 -4.203125 39.84765625 C-4.20447249 41.40417034 -4.20641373 42.96068401 -4.20892334 44.51719666 C-4.21186976 47.7762351 -4.20759192 51.03516378 -4.19824219 54.29418945 C-4.1868384 58.4729665 -4.19341594 62.65148689 -4.20538712 66.83025455 C-4.21261067 70.04298337 -4.21031568 73.25565124 -4.20513153 76.46838188 C-4.2037969 78.00937366 -4.20543625 79.55037095 -4.21009064 81.09135628 C-4.21516511 83.24342667 -4.20743347 85.39507985 -4.19628906 87.54711914 C-4.19469788 88.77193497 -4.19310669 89.99675079 -4.19146729 91.25868225 C-4.1642058 94.43245752 -4.1642058 94.43245752 -1.9375 97.25 C1.03315509 96.90772428 1.03315509 96.90772428 4.0625 96.25 C5.34855661 93.67788678 5.27293941 91.68093034 5.37890625 88.8046875 C5.41701416 87.83515137 5.45512207 86.86561523 5.49438477 85.86669922 C5.53748779 84.63193848 5.58059082 83.39717773 5.625 82.125 C5.769375 78.20625 5.91375 74.2875 6.0625 70.25 C15.6325 70.25 25.2025 70.25 35.0625 70.25 C35.31263576 99.51588379 35.31263576 99.51588379 28.11328125 107.37890625 C19.65266073 115.39656234 11.81997164 117.99910412 0.25 117.875 C-0.81081787 117.86662109 -1.87163574 117.85824219 -2.96459961 117.84960938 C-13.39948099 117.5480093 -20.4139877 115.05556122 -28 107.625 C-34.92057447 98.42113674 -34.41266942 86.34738549 -34.40625 75.3359375 C-34.41337272 73.83004482 -34.4210747 72.32415477 -34.42932129 70.81826782 C-34.44266813 67.68345561 -34.44437778 64.54889492 -34.43847656 61.4140625 C-34.43256572 57.42189912 -34.46327354 53.43094567 -34.50359344 49.43901634 C-34.52958395 46.33663573 -34.53233814 43.23454308 -34.52870178 40.13206863 C-34.53038001 38.66102667 -34.53989571 37.1899695 -34.55784607 35.7190361 C-34.67069458 25.33811073 -33.41513859 17.55246676 -26.5625 9.4375 C-25.69625 8.715625 -24.83 7.99375 -23.9375 7.25 C-23.15052734 6.58871094 -23.15052734 6.58871094 -22.34765625 5.9140625 C-15.60955716 0.62748135 -8.32276901 -0.10554236 0 0 Z " fill="#535289" transform="translate(976.9375,730.75)"/>
<path d="M0 0 C6.55871143 4.81256098 11.02296411 10.27862451 12.40625 18.453125 C12.64613286 23.26920638 12.59403021 28.07016045 12.53125 32.890625 C12.49 37.36625 12.44875 41.841875 12.40625 46.453125 C2.83625 46.453125 -6.73375 46.453125 -16.59375 46.453125 C-16.96875 32.640625 -16.96875 32.640625 -17.07177734 28.29370117 C-17.1073877 27.16424072 -17.14299805 26.03478027 -17.1796875 24.87109375 C-17.2111084 23.71375732 -17.2425293 22.5564209 -17.27490234 21.36401367 C-17.38846033 18.26185472 -17.38846033 18.26185472 -19.59375 15.453125 C-22.09375 15.03645833 -22.09375 15.03645833 -24.59375 15.453125 C-26.89877902 17.32826438 -26.89877902 17.32826438 -26.84098816 20.36888123 C-26.83956314 21.61669876 -26.83813812 22.8645163 -26.83666992 24.15014648 C-26.83856827 24.83812317 -26.84046661 25.52609985 -26.84242249 26.23492432 C-26.84613464 28.51480415 -26.83541888 30.7943671 -26.82421875 33.07421875 C-26.82302693 34.65601056 -26.82257379 36.23780309 -26.8228302 37.81959534 C-26.8212645 41.13766906 -26.81296922 44.45563503 -26.79956055 47.77368164 C-26.78258445 52.02868528 -26.77874579 56.28357025 -26.77950573 60.53860378 C-26.77923386 63.80623001 -26.77374965 67.07383025 -26.76650429 70.34144783 C-26.76331991 71.91034816 -26.76135075 73.47925144 -26.76061058 75.04815483 C-26.75844379 77.24105725 -26.7496918 79.43383362 -26.73901367 81.62670898 C-26.73520187 82.87532211 -26.73139008 84.12393524 -26.72746277 85.41038513 C-26.7311326 88.49809938 -26.7311326 88.49809938 -25.59375 91.453125 C-22.01047247 92.45529564 -22.01047247 92.45529564 -18.59375 91.453125 C-17.59919091 88.46944774 -17.39815368 86.2527058 -17.27734375 83.12890625 C-17.22018188 81.73925659 -17.22018188 81.73925659 -17.16186523 80.3215332 C-17.11876221 79.1480835 -17.07565918 77.97463379 -17.03125 76.765625 C-16.886875 73.0325 -16.7425 69.299375 -16.59375 65.453125 C-7.02375 65.453125 2.54625 65.453125 12.40625 65.453125 C13.07799182 94.50595891 13.07799182 94.50595891 5.40625 103.265625 C-4.93018948 112.23687436 -14.97678308 113.54638962 -28.18774414 112.70483398 C-37.17204628 111.76492374 -44.21262804 109.26487006 -50.421875 102.4453125 C-57.34030953 93.07519971 -56.889893 81.79517276 -56.82421875 70.60546875 C-56.82376053 69.31298721 -56.82330231 68.02050568 -56.8228302 66.68885803 C-56.82127872 63.97179662 -56.81309298 61.25486945 -56.79956055 58.5378418 C-56.78255594 55.08305493 -56.77874765 51.62841449 -56.77950573 48.17359066 C-56.77916603 44.83836433 -56.77031396 41.50318441 -56.76171875 38.16796875 C-56.76060593 36.94166245 -56.7594931 35.71535614 -56.75834656 34.45188904 C-56.64105873 13.03468698 -56.64105873 13.03468698 -48.59375 3.453125 C-36.65014775 -7.25124839 -13.66690259 -8.15074311 0 0 Z " fill="#535289" transform="translate(1323.59375,735.546875)"/>
<path d="M0 0 C0.83789062 -0.00322266 1.67578125 -0.00644531 2.5390625 -0.00976562 C13.01033022 0.07938604 21.12583551 2.05190677 29 9.3125 C30.57605328 11.69853732 31.19359322 13.51695651 32 16.3125 C32.495 17.7975 32.495 17.7975 33 19.3125 C33.07973476 20.64775717 33.10771338 21.98662083 33.09765625 23.32421875 C33.09515869 24.00701904 33.09266113 24.68981934 33.09008789 25.39331055 C33.08098389 26.25351807 33.07187988 27.11372559 33.0625 28 C33.041875 30.743125 33.02125 33.48625 33 36.3125 C24.09 36.3125 15.18 36.3125 6 36.3125 C5.5625 28.875 5.5625 28.875 5.43188477 26.52954102 C5.50204421 23.13088919 5.50204421 23.13088919 4 20.3125 C1.54207971 19.97906449 1.54207971 19.97906449 -1 20.3125 C-3.12946448 23.50669672 -3.29566029 24.49398996 -3.3125 28.1875 C-3.32925781 29.03054688 -3.34601563 29.87359375 -3.36328125 30.7421875 C-2.78306272 34.84738955 -1.08768924 37.39405273 2.05859375 40.05078125 C2.84363281 40.57027344 3.62867188 41.08976563 4.4375 41.625 C5.32050781 42.21925781 6.20351562 42.81351563 7.11328125 43.42578125 C9.08856659 44.71679995 11.06519493 46.00576551 13.04296875 47.29296875 C32.20242984 59.84739383 32.20242984 59.84739383 35.58984375 72.16259766 C36.44624434 76.65156409 36.32714417 81.19566333 36.3125 85.75 C36.32861328 86.74837891 36.34472656 87.74675781 36.36132812 88.77539062 C36.36617402 96.14599709 35.19192001 101.47663999 31.5 107.9375 C21.42660338 117.50722679 9.13250826 117.96568587 -4.0234375 117.71484375 C-12.64673998 117.25781848 -19.13360648 113.58901297 -25.125 107.5 C-28.36864676 103.38245812 -29.34937262 99.42959644 -30 94.3125 C-30.495 91.3425 -30.495 91.3425 -31 88.3125 C-31 83.6925 -31 79.0725 -31 74.3125 C-21.76 74.3125 -12.52 74.3125 -3 74.3125 C-2.5625 84.6875 -2.5625 84.6875 -2.43188477 87.95458984 C-2.3747229 89.22616943 -2.3747229 89.22616943 -2.31640625 90.5234375 C-2.27974854 91.39274902 -2.24309082 92.26206055 -2.20532227 93.15771484 C-2.12598456 95.3608262 -2.12598456 95.3608262 -1 97.3125 C1.31 96.9825 3.62 96.6525 6 96.3125 C7.94909092 90.46522724 7.70837045 83.97905938 5.2890625 78.28125 C0.78440972 71.40141666 -7.57089351 67.27879909 -14.38671875 63.02734375 C-22.93858804 57.415579 -28.33663351 51.36529181 -31 41.3125 C-31.31100312 37.68425247 -31.32468155 34.07734627 -31.3125 30.4375 C-31.32861328 29.48230469 -31.34472656 28.52710938 -31.36132812 27.54296875 C-31.3662194 20.41148414 -30.66393986 14.63440091 -26.0546875 8.88671875 C-25.33539062 8.26410156 -24.61609375 7.64148438 -23.875 7 C-23.17117188 6.36449219 -22.46734375 5.72898437 -21.7421875 5.07421875 C-14.8825427 0.66723897 -8.00586029 -0.15395885 0 0 Z " fill="#54538A" transform="translate(1502,730.6875)"/>
<path d="M0 0 C48.62857143 0 48.62857143 0 56.9375 6.1875 C63.02482276 14.48839468 63.60926878 22.33411783 63.46655273 32.33862305 C63.43750925 34.56179221 63.44599134 36.78258014 63.45898438 39.00585938 C63.44640036 47.55777731 63.32778794 54.84026508 57.75 61.8125 C48.35115448 69.28885439 41.87360339 67 29 67 C29 82.18 29 97.36 29 113 C19.43 113 9.86 113 0 113 C0 75.71 0 38.42 0 0 Z " fill="#535289" transform="translate(468,733)"/>
<path d="M0 0 C16.17 0 32.34 0 49 0 C49 7.59 49 15.18 49 23 C42.73 23 36.46 23 30 23 C30 29.93 30 36.86 30 44 C35.94 44 41.88 44 48 44 C48 51.26 48 58.52 48 66 C42.06 66 36.12 66 30 66 C30 73.92 30 81.84 30 90 C36.93 90 43.86 90 51 90 C51 97.59 51 105.18 51 113 C34.17 113 17.34 113 0 113 C0 75.71 0 38.42 0 0 Z " fill="#55548A" transform="translate(1023,733)"/>
<path d="M0 0 C21.45 0 42.9 0 65 0 C65 7.59 65 15.18 65 23 C59.39 23 53.78 23 48 23 C48 52.7 48 82.4 48 113 C38.1 113 28.2 113 18 113 C18 83.3 18 53.6 18 23 C12.06 23 6.12 23 0 23 C0 15.41 0 7.82 0 0 Z " fill="#56558B" transform="translate(1155,733)"/>
<path d="M0 0 C9.9 0 19.8 0 30 0 C30 30.03 30 60.06 30 91 C35.94 91 41.88 91 48 91 C48 98.59 48 106.18 48 114 C32.16 114 16.32 114 0 114 C0 76.38 0 38.76 0 0 Z " fill="#56558B" transform="translate(1419,732)"/>
<path d="M0 0 C9.9 0 19.8 0 30 0 C30 37.62 30 75.24 30 114 C20.1 114 10.2 114 0 114 C0 76.38 0 38.76 0 0 Z " fill="#56558C" transform="translate(545,558)"/>
<path d="M0 0 C9.9 0 19.8 0 30 0 C30 37.29 30 74.58 30 113 C20.1 113 10.2 113 0 113 C0 75.71 0 38.42 0 0 Z " fill="#55548B" transform="translate(1226,733)"/>
<path d="M0 0 C2.5 0.25 2.5 0.25 4.5 2.25 C4.76069641 5.27964783 4.76069641 5.27964783 4.7746582 9.22241211 C4.77976913 9.93964951 4.78488007 10.6568869 4.79014587 11.39585876 C4.80407629 13.77310469 4.80308252 16.1500618 4.80078125 18.52734375 C4.8046664 20.17639779 4.80900069 21.82545083 4.81376648 23.47450256 C4.82123618 26.93379965 4.82093209 30.3929947 4.81567383 33.85229492 C4.80987922 38.28903362 4.82680611 42.72535485 4.8500185 47.1620245 C4.86473897 50.56863352 4.86562984 53.97514162 4.86250877 57.38177681 C4.86302287 59.01767364 4.8682772 60.65357599 4.87832069 62.28944206 C4.89063502 64.57596961 4.88392421 66.86167925 4.87231445 69.14819336 C4.87294388 70.45010117 4.8735733 71.75200897 4.8742218 73.09336853 C4.5 76.25 4.5 76.25 3.22673035 78.19386292 C1.5 79.25 1.5 79.25 -2.5 79.25 C-4.9853335 75.52199974 -4.75334484 73.60265236 -4.75878906 69.14819336 C-4.7622937 68.42920364 -4.76579834 67.71021393 -4.76940918 66.96943665 C-4.7782121 64.59280749 -4.77238315 62.21647593 -4.765625 59.83984375 C-4.76697192 58.18982384 -4.76891267 56.53980432 -4.77142334 54.88978577 C-4.77437252 51.43226339 -4.77008304 47.97484435 -4.76074219 44.51733398 C-4.7493388 40.07948314 -4.75591396 35.64187395 -4.76788712 31.20403194 C-4.77510367 27.79747181 -4.7728189 24.39096927 -4.76763153 20.98440742 C-4.76629493 19.3476922 -4.76794313 17.71097179 -4.77259064 16.07426262 C-4.77765355 13.79017086 -4.76994968 11.50647433 -4.75878906 9.22241211 C-4.75719788 7.9212999 -4.75560669 6.62018768 -4.75396729 5.27964783 C-4.43693056 1.4976267 -3.85604524 0.38560452 0 0 Z " fill="#F7F6FB" transform="translate(771.5,575.75)"/>
<path d="M0 0 C5.77604867 8.664073 5.4151156 17.92554276 5.34057617 27.98461914 C5.33972879 29.5918374 5.34020721 31.19905682 5.34190369 32.80627441 C5.34276072 37.14661522 5.32518249 41.48670482 5.30418181 45.8269875 C5.28536613 50.37133446 5.28366073 54.91568785 5.28010559 59.46006775 C5.27079946 68.05527853 5.24620513 76.65037417 5.21605712 85.24553436 C5.18246845 95.03514152 5.16601589 104.82475432 5.15097082 114.6144048 C5.11965425 134.74300067 5.06692171 154.87149307 5 175 C3.02 174.34 1.04 173.68 -1 173 C0.32 172.67 1.64 172.34 3 172 C2.91611178 150.98138397 2.82098268 129.96284558 2.71247292 108.94434166 C2.66235197 99.18507835 2.61590895 89.42582342 2.578125 79.66650391 C2.54518304 71.16024684 2.50533958 62.65405489 2.45720994 54.14786971 C2.43196692 49.64395596 2.41017911 45.14008529 2.39665604 40.63611984 C2.3838158 36.39589673 2.36174016 32.1558215 2.33261681 27.91567993 C2.32355639 26.36048609 2.31785438 24.80526845 2.31578636 23.25004959 C2.31245293 21.123757 2.2969468 18.99788091 2.2784729 16.87167358 C2.27294214 15.68256063 2.26741138 14.49344769 2.26171303 13.26830101 C1.99043493 9.88055041 1.11305504 7.19500203 0 4 C0 2.68 0 1.36 0 0 Z " fill="#3998D3" transform="translate(382,436)"/>
<path d="M0 0 C0.33 0 0.66 0 1 0 C1.57599192 5.10388589 2.1454061 10.20844914 2.70898438 15.3137207 C2.90122941 17.04699034 3.09520731 18.78006875 3.29101562 20.51293945 C3.57367851 23.01724604 3.84990753 25.5221956 4.125 28.02734375 C4.21249512 28.79022202 4.29999023 29.55310028 4.39013672 30.33909607 C4.9580223 35.58721723 5.07328886 40.72091213 5 46 C1.7 46 -1.6 46 -5 46 C-3.91584807 30.5540237 -2.41276885 15.2969545 0 0 Z " fill="#EDEDF3" transform="translate(649,760)"/>
<path d="M0 0 C2.67152634 0.00534548 5.34288309 0.00002303 8.0144043 -0.00634766 C25.82271002 -0.01779396 43.16217822 0.53207885 60.68212891 3.921875 C63.06740478 4.38192924 65.45619478 4.81802802 67.84643555 5.25146484 C83.34118708 8.12698489 98.11363043 12.63405414 112.87182617 18.13037109 C108.30752807 19.59728649 104.95815582 18.02809243 100.62182617 16.44287109 C90.8156783 13.01620599 80.83312426 9.77815008 70.47338867 8.58740234 C66.87182617 8.13037109 66.87182617 8.13037109 65.87182617 7.13037109 C58.16711539 5.57973748 50.38718352 4.84583871 42.55151367 4.37646484 C39.87182617 4.13037109 39.87182617 4.13037109 36.87182617 3.13037109 C34.36201743 3.03951594 31.88062696 3.0042896 29.37109375 3.0168457 C28.60987717 3.01669968 27.84866058 3.01655365 27.06437683 3.0164032 C24.54834137 3.01709985 22.03237995 3.02488071 19.51635742 3.03271484 C17.77186626 3.0345799 16.02737457 3.03600339 14.28288269 3.03700256 C9.69123895 3.04082083 5.09962685 3.05064525 0.50799561 3.06170654 C-4.17736381 3.07193548 -8.86272834 3.07650337 -13.5480957 3.08154297 C-22.74146897 3.09226812 -31.93481877 3.10933629 -41.12817383 3.13037109 C-41.12817383 2.80037109 -41.12817383 2.47037109 -41.12817383 2.13037109 C-36.6116703 1.29855587 -32.13382953 0.83646491 -27.55395508 0.57568359 C-26.82082596 0.533638 -26.08769684 0.49159241 -25.33235168 0.44827271 C-16.89064662 0.00778594 -8.4513153 -0.0200104 0 0 Z " fill="#D1F4FD" transform="translate(271.128173828125,590.86962890625)"/>
<path d="M0 0 C2.31 0.33 4.62 0.66 7 1 C9.9069253 5.36038795 9.32974281 9.30948776 9.3125 14.4375 C9.32861328 15.39205078 9.34472656 16.34660156 9.36132812 17.33007812 C9.36197266 18.25111328 9.36261719 19.17214844 9.36328125 20.12109375 C9.36775269 21.38070923 9.36775269 21.38070923 9.37231445 22.66577148 C8.89828947 25.63767497 8.22609431 26.96286111 6 29 C4.02 29 2.04 29 0 29 C0 19.43 0 9.86 0 0 Z " fill="#F4F4F9" transform="translate(497,752)"/>
<path d="M0 0 C0.33 0 0.66 0 1 0 C1.57382171 5.15905399 2.14335137 10.31855741 2.70898438 15.47851562 C2.9018277 17.23222508 3.095824 18.98580817 3.29101562 20.73925781 C3.57207773 23.26594879 3.84893092 25.7930717 4.125 28.3203125 C4.21249512 29.09867462 4.29999023 29.87703674 4.39013672 30.6789856 C4.83696475 34.80961632 5.09263538 38.83719757 5 43 C1.7 43 -1.6 43 -5 43 C-4.50801104 28.53552461 -2.15279759 14.29164377 0 0 Z " fill="#F1F0F7" transform="translate(1377,763)"/>
<path d="M0 0 C8.25 0 16.5 0 25 0 C25 0.33 25 0.66 25 1 C14.11 1.495 14.11 1.495 3 2 C2.97494385 4.79927979 2.9498877 7.59855957 2.92407227 10.48266602 C2.84019864 19.78255031 2.75156741 29.08238503 2.66066074 38.3822031 C2.60574509 44.01479381 2.55237927 49.64738991 2.50268555 55.2800293 C2.45457442 60.72657713 2.40222218 66.17306989 2.34705925 71.6195507 C2.32684516 73.68649848 2.30810079 75.75346122 2.29092598 77.82043648 C2.19491523 89.25101372 1.94671783 100.60452862 1 112 C0.67 112 0.34 112 0 112 C0 75.04 0 38.08 0 0 Z " fill="#54547C" transform="translate(545,559)"/>
<path d="M0 0 C3.02614982 3.02614982 2.38615576 6.555961 2.5 10.625 C2.80120104 18.39406264 3.51506195 25.98299518 4.59765625 33.6796875 C4.93972373 36.50257449 5.08090957 39.16277093 5 42 C2.03 42 -0.94 42 -4 42 C-4.72952616 27.9228471 -2.41156367 13.83722457 0 0 Z " fill="#F6F6FA" transform="translate(901,763)"/>
<path d="M0 0 C0.33 0 0.66 0 1 0 C1.0501123 0.65782471 1.10022461 1.31564941 1.15185547 1.9934082 C2.22783176 16.02135754 3.43347894 30.01796632 5 44 C1.7 44 -1.6 44 -5 44 C-3.85805902 29.23537481 -2.26550526 14.635164 0 0 Z " fill="#F4F4FA" transform="translate(696,587)"/>
<path d="M0 0 C6 1 6 1 7.85546875 2.62890625 C9.40660545 5.84235326 9.36184243 8.38104941 9.3125 11.9375 C9.30863281 13.14277344 9.30476562 14.34804688 9.30078125 15.58984375 C8.99606954 19.04456227 8.55369265 22.44630735 6 25 C4.02 25 2.04 25 0 25 C0 16.75 0 8.5 0 0 Z " fill="#F5F5F9" transform="translate(721,752)"/>
<path d="M0 0 C1.34316136 4.02948407 0.24138024 5.77762912 -1.1875 9.75 C-11.9131266 40.54353264 -12.76865214 72.7155385 -10 105 C-12.37237071 102.09239931 -14.4707257 99.44086718 -16 96 C-15.34 96 -14.68 96 -14 96 C-14 96.66 -14 97.32 -14 98 C-13.34 98 -12.68 98 -12 98 C-12.32452148 97.16170654 -12.64904297 96.32341309 -12.98339844 95.4597168 C-14.09297897 91.6835723 -14.25865352 88.57569802 -14.265625 84.64453125 C-14.26839951 83.94926331 -14.27117401 83.25399536 -14.27403259 82.53765869 C-14.27816881 80.29573407 -14.26564143 78.05436831 -14.25 75.8125 C-14.24723053 75.0494455 -14.24446106 74.28639099 -14.24160767 73.50021362 C-14.17912928 58.88084757 -14.01555096 44.30301033 -9.65234375 30.21484375 C-8.87647686 27.78639091 -8.87647686 27.78639091 -8.5 24.3125 C-8.01405033 21.09308341 -7.09971482 18.34405234 -5.89453125 15.328125 C-4.39303513 11.42030105 -3.15328738 7.42432798 -1.8671875 3.44140625 C-1 1 -1 1 0 0 Z " fill="#E48C29" transform="translate(131,444)"/>
<path d="M0 0 C7.22655492 -0.02529174 14.4530985 -0.04284219 21.6796875 -0.05493164 C24.13965278 -0.05996989 26.59961505 -0.0668006 29.05957031 -0.07543945 C32.58920025 -0.08752723 36.11879069 -0.09323329 39.6484375 -0.09765625 C40.75367767 -0.10281754 41.85891785 -0.10797882 42.99765015 -0.11329651 C44.01855743 -0.11337204 45.03946472 -0.11344757 46.09130859 -0.11352539 C46.99287689 -0.115746 47.89444519 -0.11796661 48.82333374 -0.12025452 C51 0 51 0 53 1 C54.41457122 1.12787796 55.83425175 1.20198481 57.25390625 1.24609375 C58.10919922 1.27896484 58.96449219 1.31183594 59.84570312 1.34570312 C61.62945912 1.40597382 63.41331543 1.46335873 65.19726562 1.51757812 C70.85757461 1.74128907 76.62488376 2.06106639 82 4 C82.495 4.99 82.495 4.99 83 6 C81.61554688 5.80083984 81.61554688 5.80083984 80.203125 5.59765625 C72.80709618 4.59641519 65.45647607 3.8188236 58 3.46875 C57.15093079 3.42770645 56.30186157 3.3866629 55.42706299 3.34437561 C44.2071558 2.83359338 32.97874894 2.64521999 21.75 2.4375 C19.52864041 2.39415719 17.30728618 2.35053886 15.0859375 2.30664062 C9.72401568 2.20126409 4.36203877 2.09923776 -1 2 C-0.67 1.34 -0.34 0.68 0 0 Z " fill="#2390D0" transform="translate(248,589)"/>
<path d="M0 0 C1.14250465 0.00333092 1.14250465 0.00333092 2.30809021 0.00672913 C3.16890701 0.00680466 4.02972382 0.00688019 4.91662598 0.00695801 C5.8520372 0.01211929 6.78744843 0.01728058 7.75120544 0.02259827 C8.70422043 0.02401321 9.65723541 0.02542816 10.63912964 0.02688599 C13.69605085 0.032503 16.75289996 0.04505836 19.80979919 0.05775452 C21.87685543 0.06276733 23.94391281 0.06733061 26.01097107 0.07142639 C31.08977507 0.08247795 36.16852489 0.09975397 41.24729919 0.12025452 C41.58681538 1.68142271 41.91862464 3.2442679 42.24729919 4.80775452 C42.43292419 5.6778717 42.61854919 6.54798889 42.80979919 7.44447327 C43.23701966 10.05738416 43.3234612 12.4783849 43.24729919 15.12025452 C41.24729919 11.12025452 41.24729919 11.12025452 40.24729919 2.12025452 C26.71729919 2.45025452 13.18729919 2.78025452 -0.75270081 3.12025452 C-1.41270081 6.75025452 -2.07270081 10.38025452 -2.75270081 14.12025452 C-3.08270081 14.12025452 -3.41270081 14.12025452 -3.75270081 14.12025452 C-3.61240662 11.97405192 -3.46531917 9.82829234 -3.31520081 7.68275452 C-3.23398987 6.48779358 -3.15277893 5.29283264 -3.06910706 4.06166077 C-2.65176661 0.1819403 -2.65176661 0.1819403 0 0 Z " fill="#8B8AAD" transform="translate(675.7527008056641,557.8797454833984)"/>
<path d="M0 0 C2.18485237 0.01073398 4.36888298 0.00002424 6.55371094 -0.01269531 C15.61376443 -0.02033706 24.24055845 0.70476809 33.18652344 2.26074219 C33.18652344 2.59074219 33.18652344 2.92074219 33.18652344 3.26074219 C12.72652344 3.26074219 -7.73347656 3.26074219 -28.81347656 3.26074219 C-28.81347656 2.93074219 -28.81347656 2.60074219 -28.81347656 2.26074219 C-19.12751223 0.5760598 -9.80625946 -0.05708973 0 0 Z " fill="#40A1DC" transform="translate(278.8134765625,391.7392578125)"/>
<path d="M0 0 C0.33 0 0.66 0 1 0 C1.02505615 1.145896 1.0501123 2.29179199 1.07592773 3.47241211 C1.16983106 7.70853598 1.27009275 11.94448928 1.37231445 16.18041992 C1.4157282 18.01664247 1.45739839 19.85290708 1.49731445 21.68920898 C1.55486169 24.32288311 1.61859998 26.95634421 1.68359375 29.58984375 C1.70866249 30.82890724 1.70866249 30.82890724 1.73423767 32.09300232 C1.47807433 35.85476753 1.47807433 35.85476753 3 39 C3.07226502 40.85287502 3.0838122 42.70833878 3.0625 44.5625 C3.05347656 45.57441406 3.04445313 46.58632813 3.03515625 47.62890625 C3.02355469 48.41136719 3.01195313 49.19382812 3 50 C3.66 50 4.32 50 5 50 C5.48164188 52.35368393 5.96036648 54.70790155 6.4375 57.0625 C6.57220703 57.71927734 6.70691406 58.37605469 6.84570312 59.05273438 C7.71470632 63.35535995 8.4172492 67.64917124 9 72 C-3.34480574 53.48279139 -3.0883175 20.99557784 0 0 Z " fill="#E79841" transform="translate(62,384)"/>
<path d="M0 0 C6.39037231 -0.02527062 12.78073183 -0.04283317 19.17114258 -0.05493164 C21.34692873 -0.05997308 23.52271147 -0.06680607 25.69848633 -0.07543945 C28.81853067 -0.08751338 31.93853038 -0.09323005 35.05859375 -0.09765625 C36.52733192 -0.10539818 36.52733192 -0.10539818 38.02574158 -0.11329651 C39.37702904 -0.11340981 39.37702904 -0.11340981 40.75561523 -0.11352539 C41.95141457 -0.11685631 41.95141457 -0.11685631 43.17137146 -0.12025452 C45 0 45 0 46 1 C47.51469448 1.23192865 49.03754562 1.41215238 50.5625 1.5625 C51.38878906 1.64628906 52.21507812 1.73007812 53.06640625 1.81640625 C53.70449219 1.87699219 54.34257812 1.93757813 55 2 C55 2.66 55 3.32 55 4 C56.216875 4.0825 57.43375 4.165 58.6875 4.25 C64.98302704 4.9428092 71.11363564 6.67874024 77 9 C77.495 9.99 77.495 9.99 78 11 C76.12425571 10.54472226 74.24943754 10.0856282 72.375 9.625 C71.33085937 9.36976563 70.28671875 9.11453125 69.2109375 8.8515625 C67.17593746 8.31186662 65.15553725 7.71037021 63.1640625 7.02734375 C42.85239387 0.43232048 21.10595485 1.19040992 0 1 C0 0.67 0 0.34 0 0 Z " fill="#EE9F4B" transform="translate(266,347)"/>
<path d="M0 0 C0.99 0.33 1.98 0.66 3 1 C2.83923477 1.56354187 2.67846954 2.12708374 2.51283264 2.70770264 C1.97924605 5.09276754 1.84163618 7.23491876 1.79467773 9.67675781 C1.77473251 10.59741028 1.75478729 11.51806274 1.73423767 12.46661377 C1.71752518 13.45216248 1.70081268 14.43771118 1.68359375 15.453125 C1.66281265 16.46848328 1.64203156 17.48384155 1.62062073 18.52996826 C1.55529403 21.76991073 1.49631863 25.00993348 1.4375 28.25 C1.39429874 30.44792493 1.35068393 32.64584178 1.30664062 34.84375 C1.19885256 40.2290856 1.09965327 45.61448312 1 51 C-6.92 51 -14.84 51 -23 51 C-23 50.67 -23 50.34 -23 50 C-15.41 50 -7.82 50 0 50 C0 33.5 0 17 0 0 Z " fill="#6F6E98" transform="translate(491,621)"/>
<path d="M0 0 C1.20955195 3.62865585 0.64105035 5.0474297 -0.375 8.6875 C-2.79712841 17.41395329 -3.21884422 25.99734538 -3.5625 35 C-3.60568359 36.06089844 -3.64886719 37.12179687 -3.69335938 38.21484375 C-3.79855996 40.80979151 -3.90070119 43.40482084 -4 46 C-4.66 46 -5.32 46 -6 46 C-6.02886984 42.02084841 -6.04675406 38.04172347 -6.0625 34.0625 C-6.07087891 32.92619141 -6.07925781 31.78988281 -6.08789062 30.61914062 C-6.09111328 29.53955078 -6.09433594 28.45996094 -6.09765625 27.34765625 C-6.10289307 26.34742432 -6.10812988 25.34719238 -6.11352539 24.31665039 C-6 22 -6 22 -5 21 C-4.34076339 17.70004987 -3.75716133 14.39530898 -3.19335938 11.078125 C-2.4982713 7.15970105 -1.66020074 3.65100423 0 0 Z " fill="#FEF4DA" transform="translate(65,369)"/>
<path d="M0 0 C0.33 0 0.66 0 1 0 C1 11.55 1 23.1 1 35 C2.485 34.505 2.485 34.505 4 34 C4.33 34.99 4.66 35.98 5 37 C3.37660195 38.70884005 1.70680947 40.37446717 0 42 C-0.66 42 -1.32 42 -2 42 C-1.34 28.14 -0.68 14.28 0 0 Z " fill="#E18D33" transform="translate(441,504)"/>
<path d="M0 0 C0.33 0 0.66 0 1 0 C1.20202634 6.6668691 0.52199018 12.61562024 -0.875 19.125 C-1.04902344 19.97964844 -1.22304688 20.83429688 -1.40234375 21.71484375 C-2.40441044 26.54703202 -3.57847767 31.27439873 -5 36 C-5.33 36 -5.66 36 -6 36 C-5.85970581 33.8537974 -5.71261836 31.70803782 -5.5625 29.5625 C-5.48128906 28.36753906 -5.40007812 27.17257813 -5.31640625 25.94140625 C-5 23 -5 23 -4 22 C-3.79395915 20.67218122 -3.6337041 19.33704105 -3.5 18 C-3.11111111 14.11111111 -3.11111111 14.11111111 -2 13 C-1.60333773 10.81980521 -1.25684763 8.6303537 -0.9375 6.4375 C-0.76089844 5.23996094 -0.58429688 4.04242188 -0.40234375 2.80859375 C-0.26957031 1.88175781 -0.13679688 0.95492187 0 0 Z " fill="#FEECCA" transform="translate(282,90)"/>
<path d="M0 0 C0.33 0 0.66 0 1 0 C0.45144652 4.571279 -0.41744803 8.67435795 -2 13 C-2.66 13 -3.32 13 -4 13 C-4 14.98 -4 16.96 -4 19 C-4.66 19 -5.32 19 -6 19 C-6.20496094 19.62648438 -6.40992188 20.25296875 -6.62109375 20.8984375 C-6.89050781 21.71570313 -7.15992188 22.53296875 -7.4375 23.375 C-7.70433594 24.18710937 -7.97117187 24.99921875 -8.24609375 25.8359375 C-9 28 -9 28 -10 30 C-10.66 30 -11.32 30 -12 30 C-11.57045619 28.6016978 -11.13092966 27.20646093 -10.6875 25.8125 C-10.44386719 25.03519531 -10.20023437 24.25789063 -9.94921875 23.45703125 C-9 21 -9 21 -7.59375 18.71875 C-5.52528143 15.19018597 -4.20116776 11.52433759 -2.8125 7.6875 C-2.53986328 6.94693359 -2.26722656 6.20636719 -1.98632812 5.44335938 C-1.31968797 3.63056598 -0.65921459 1.81550684 0 0 Z " fill="#FDEBCA" transform="translate(511,440)"/>
<path d="M0 0 C4.89095564 7.33643346 8 19.16157341 8 28 C7.34 28 6.68 28 6 28 C5.89042969 27.25234375 5.78085937 26.5046875 5.66796875 25.734375 C5.50941406 24.74953125 5.35085938 23.7646875 5.1875 22.75 C5.03667969 21.77546875 4.88585937 20.8009375 4.73046875 19.796875 C4.19472341 16.97975394 4.19472341 16.97975394 2.46875 15.0625 C0.40878677 12.16978567 0.48805272 9.76105431 0.3125 6.25 C0.24675781 5.07953125 0.18101562 3.9090625 0.11328125 2.703125 C0.07589844 1.81109375 0.03851563 0.9190625 0 0 Z " fill="#E99439" transform="translate(508,280)"/>
<path d="M0 0 C1.48828125 1.14453125 1.48828125 1.14453125 3 3 C3.29296875 5.69921875 3.29296875 5.69921875 3.1875 8.6875 C3.16042969 9.68136719 3.13335937 10.67523438 3.10546875 11.69921875 C3.07066406 12.45847656 3.03585938 13.21773438 3 14 C3.66 14 4.32 14 5 14 C5.48164188 16.35368393 5.96036648 18.70790155 6.4375 21.0625 C6.57220703 21.71927734 6.70691406 22.37605469 6.84570312 23.05273438 C7.71470632 27.35535995 8.4172492 31.64917124 9 36 C7.29797884 33.44696826 6.5731756 31.99786541 5.78125 29.15625 C5.57201904 28.40939941 5.36278809 27.66254883 5.1472168 26.89306641 C4.93363525 26.10335449 4.72005371 25.31364258 4.5 24.5 C4.27932861 23.69353027 4.05865723 22.88706055 3.83129883 22.05615234 C1.87536632 14.77877217 0 7.56958999 0 0 Z " fill="#E68A27" transform="translate(62,420)"/>
<path d="M0 0 C0.33 0.99 0.66 1.98 1 3 C-1.78116763 8.56233527 -5.29881176 13.29943715 -11 16 C-11.66 15.67 -12.32 15.34 -13 15 C-12.56429687 14.50371094 -12.12859375 14.00742188 -11.6796875 13.49609375 C-7.75726021 9.02180981 -3.86455714 4.52435958 0 0 Z " fill="#EA8B24" transform="translate(244,186)"/>
<path d="M0 0 C4.26768447 3.10656672 7.20382899 6.55905094 10.3125 10.75 C10.76689453 11.35199219 11.22128906 11.95398438 11.68945312 12.57421875 C12.79857709 14.04526738 13.90008363 15.52205412 15 17 C14.67 17.66 14.34 18.32 14 19 C13.4225 18.360625 12.845 17.72125 12.25 17.0625 C10.01937599 15.01776132 8.92563609 14.41794801 6 14 C6.33 13.01 6.66 12.02 7 11 C6.67 10.01 6.34 9.02 6 8 C4.7625 7.5978125 4.7625 7.5978125 3.5 7.1875 C2.675 6.795625 1.85 6.40375 1 6 C0.1875 2.875 0.1875 2.875 0 0 Z " fill="#E98D2B" transform="translate(427,141)"/>
<path d="M0 0 C0.98120464 3.05263664 0.98120464 4.94736336 0 8 C-0.66 8 -1.32 8 -2 8 C-2.1546875 9.60875 -2.1546875 9.60875 -2.3125 11.25 C-2.97202199 14.84739269 -3.45776191 16.45776191 -6 19 C-6.66 19 -7.32 19 -8 19 C-8 20.32 -8 21.64 -8 23 C-8.99 23 -9.98 23 -11 23 C-9.28918228 18.44080513 -7.13246287 14.1513801 -4.9375 9.8125 C-4.57333984 9.08869141 -4.20917969 8.36488281 -3.83398438 7.61914062 C-2.89095009 5.74527398 -1.94563115 3.8725575 -1 2 C-0.67 1.34 -0.34 0.68 0 0 Z " fill="#E7902E" transform="translate(269,145)"/>
<path d="M0 0 C1.32 0.66 2.64 1.32 4 2 C2.50958227 5.79379058 0.30937488 7.68343758 -3 10 C-3.66 10 -4.32 10 -5 10 C-5 9.34 -5 8.68 -5 8 C-5.66 7.67 -6.32 7.34 -7 7 C-6.38125 6.7525 -5.7625 6.505 -5.125 6.25 C-2.62985717 4.78226892 -2.09872287 3.62003145 -1 1 C-0.67 0.67 -0.34 0.34 0 0 Z " fill="#5E5B8E" transform="translate(795,660)"/>
<path d="M0 0 C0.33 1.32 0.66 2.64 1 4 C-0.73046875 6.25390625 -0.73046875 6.25390625 -3.1875 8.5625 C-3.98542969 9.32691406 -4.78335937 10.09132813 -5.60546875 10.87890625 C-7.67165733 12.7091516 -9.76107778 14.38900539 -12 16 C-12.66 15.67 -13.32 15.34 -14 15 C-9.38 10.05 -4.76 5.1 0 0 Z " fill="#FEEBD0" transform="translate(461,524)"/>
<path d="M0 0 C0.66 0.33 1.32 0.66 2 1 C-4.72568988 9.33442838 -4.72568988 9.33442838 -10 11 C-12.52058222 12.87578212 -14.77966938 14.77966938 -17 17 C-17.66 16.34 -18.32 15.68 -19 15 C-17.69675781 14.00419922 -17.69675781 14.00419922 -16.3671875 12.98828125 C-15.2030743 12.09642033 -14.03901467 11.2044895 -12.875 10.3125 C-12.30523437 9.87744141 -11.73546875 9.44238281 -11.1484375 8.99414062 C-7.35374828 6.0834415 -3.65577385 3.08351746 0 0 Z " fill="#E99534" transform="translate(192,234)"/>
<path d="M0 0 C0.99 0 1.98 0 3 0 C3 2.64 3 5.28 3 8 C1.37419034 7.88601335 -0.25067157 7.75844341 -1.875 7.625 C-2.77992188 7.55539062 -3.68484375 7.48578125 -4.6171875 7.4140625 C-7 7 -7 7 -9 5 C-4.545 4.505 -4.545 4.505 0 4 C0 2.68 0 1.36 0 0 Z " fill="#0F8CDB" transform="translate(382,600)"/>
<path d="M0 0 C-0.69867188 0.19335938 -1.39734375 0.38671875 -2.1171875 0.5859375 C-3.02726562 0.84632813 -3.93734375 1.10671875 -4.875 1.375 C-5.77992188 1.63023437 -6.68484375 1.88546875 -7.6171875 2.1484375 C-10.14569726 2.8604315 -10.14569726 2.8604315 -12 5 C-14.8203125 5.1953125 -14.8203125 5.1953125 -18.125 5.125 C-19.22070312 5.10695313 -20.31640625 5.08890625 -21.4453125 5.0703125 C-22.28835937 5.04710937 -23.13140625 5.02390625 -24 5 C-20.28809631 2.52539754 -16.86188638 1.81244125 -12.5625 0.8125 C-11.79873047 0.62236328 -11.03496094 0.43222656 -10.24804688 0.23632812 C-9.50748047 0.06166016 -8.76691406 -0.11300781 -8.00390625 -0.29296875 C-7.33174072 -0.4530542 -6.6595752 -0.61313965 -5.96704102 -0.77807617 C-3.73643754 -1.02973542 -2.12986947 -0.66240813 0 0 Z " fill="#FDE9C6" transform="translate(254,351)"/>
<path d="M0 0 C0.99 0 1.98 0 3 0 C3.6708712 1.6232687 4.33657029 3.24867578 5 4.875 C5.556875 6.23238281 5.556875 6.23238281 6.125 7.6171875 C7 10 7 10 7 12 C7.66 12 8.32 12 9 12 C9.28875 12.94875 9.5775 13.8975 9.875 14.875 C10.76825109 18.05211578 10.76825109 18.05211578 13 20 C12.625 22.125 12.625 22.125 12 24 C9.99670983 20.18921997 7.99792024 16.37609775 6 12.5625 C5.42765625 11.47388672 4.8553125 10.38527344 4.265625 9.26367188 C3.72421875 8.22919922 3.1828125 7.19472656 2.625 6.12890625 C2.12226562 5.17056885 1.61953125 4.21223145 1.1015625 3.22485352 C0 1 0 1 0 0 Z " fill="#E68D2C" transform="translate(80,480)"/>
<path d="M0 0 C0 0.33 0 0.66 0 1 C-3.91440993 1.70078836 -7.831789 2.38331354 -11.75 3.0625 C-13.41675781 3.36124023 -13.41675781 3.36124023 -15.1171875 3.66601562 C-16.72207031 3.94155273 -16.72207031 3.94155273 -18.359375 4.22265625 C-19.34389648 4.39547119 -20.32841797 4.56828613 -21.34277344 4.74633789 C-23.90134043 4.99058184 -25.58290392 4.80486291 -28 4 C-27.34 4 -26.68 4 -26 4 C-26 3.34 -26 2.68 -26 2 C-17.2580141 0.6786742 -8.862582 -0.33165588 0 0 Z " fill="#1B8BCE" transform="translate(244,591)"/>
<path d="M0 0 C0.33 0.99 0.66 1.98 1 3 C-0.375 4.5 -0.375 4.5 -2 6 C-2.66 6 -3.32 6 -4 6 C-4.3403125 6.8971875 -4.3403125 6.8971875 -4.6875 7.8125 C-6.3611297 10.60188284 -8.08817726 11.6168842 -11 13 C-11.66 12.67 -12.32 12.34 -13 12 C-11.21135158 10.18443212 -9.41928379 8.37248378 -7.625 6.5625 C-7.11710938 6.04623047 -6.60921875 5.52996094 -6.0859375 4.99804688 C-2.2265625 1.11328125 -2.2265625 1.11328125 0 0 Z " fill="#E78C29" transform="translate(227,205)"/>
<path d="M0 0 C1 2 1 2 0.1875 4.9375 C-1 8 -1 8 -3 11 C-3.36351504 13.02542148 -3.36351504 13.02542148 -3.4140625 15.23046875 C-3.45273437 16.03291016 -3.49140625 16.83535156 -3.53125 17.66210938 C-3.5621875 18.49548828 -3.593125 19.32886719 -3.625 20.1875 C-3.66367187 21.03248047 -3.70234375 21.87746094 -3.7421875 22.74804688 C-3.83636279 24.83167524 -3.91926675 26.91580753 -4 29 C-4.33 29 -4.66 29 -5 29 C-5.95744681 8.27659574 -5.95744681 8.27659574 0 0 Z " fill="#727098" transform="translate(948,743)"/>
<path d="M0 0 C0.66 0 1.32 0 2 0 C4.66038099 5.5626148 5.96232949 10.93267948 7 17 C7.66 17 8.32 17 9 17 C9 18.98 9 20.96 9 23 C6.79738228 19.69607341 5.39260785 16.29286309 3.9375 12.625 C3.66873047 11.965 3.39996094 11.305 3.12304688 10.625 C1.71903987 7.10973059 0.58543194 3.74387336 0 0 Z " fill="#FEF1D4" transform="translate(498,251)"/>
<path d="M0 0 C0.33 0.66 0.66 1.32 1 2 C0.34 2 -0.32 2 -1 2 C-1 2.66 -1 3.32 -1 4 C-2.65 4.33 -4.3 4.66 -6 5 C-6 5.66 -6 6.32 -6 7 C-8.64 6.67 -11.28 6.34 -14 6 C-9.52046848 3.01364565 -5.36648445 0.78918889 0 0 Z " fill="#1F91D7" transform="translate(224,401)"/>
<path d="M0 0 C-5.445 4.455 -5.445 4.455 -11 9 C-11.33 8.01 -11.66 7.02 -12 6 C-10.68 5.67 -9.36 5.34 -8 5 C-7.67 3.35 -7.34 1.7 -7 0 C-4 -1 -4 -1 0 0 Z " fill="#FEF1DA" transform="translate(211,220)"/>
<path d="M0 0 C0.99 0.33 1.98 0.66 3 1 C1.75645114 2.29787866 0.5048736 3.58806759 -0.75 4.875 C-1.44609375 5.59429687 -2.1421875 6.31359375 -2.859375 7.0546875 C-4.85122217 8.86479679 -6.5427658 9.94848086 -9 11 C-8.67 9.02 -8.34 7.04 -8 5 C-6.35 5 -4.7 5 -3 5 C-3 4.34 -3 3.68 -3 3 C-2.34 3 -1.68 3 -1 3 C-0.67 2.01 -0.34 1.02 0 0 Z " fill="#FDECCF" transform="translate(132,279)"/>
<path d="M0 0 C-0.38520564 2.53910197 -0.70097943 3.72751123 -2.62890625 5.484375 C-3.26699219 5.90203125 -3.90507812 6.3196875 -4.5625 6.75 C-5.20316406 7.17796875 -5.84382812 7.6059375 -6.50390625 8.046875 C-7.24447266 8.51867187 -7.24447266 8.51867187 -8 9 C-8.99 8.34 -9.98 7.68 -11 7 C-9.54634731 5.82750647 -8.08692581 4.66216184 -6.625 3.5 C-5.40683594 2.52546875 -5.40683594 2.52546875 -4.1640625 1.53125 C-2 0 -2 0 0 0 Z " fill="#EB881C" transform="translate(171,252)"/>
<path d="M0 0 C0.33 0 0.66 0 1 0 C1.33 4.62 1.66 9.24 2 14 C1.01 14.495 1.01 14.495 0 15 C-0.66 15.99 -1.32 16.98 -2 18 C-2.27560214 11.79895188 -1.22899346 6.06815522 0 0 Z " fill="#D4D5E9" transform="translate(649,760)"/>
<path d="M0 0 C2.375 0.625 2.375 0.625 5 2 C6.21150009 4.76914307 7 6.96971741 7 10 C7.66 10 8.32 10 9 10 C8.67 11.32 8.34 12.64 8 14 C6.66397562 11.85580015 5.33107996 9.70976582 4 7.5625 C3.6184375 6.95083984 3.236875 6.33917969 2.84375 5.70898438 C0 1.11328125 0 1.11328125 0 0 Z " fill="#FEF0D8" transform="translate(462,186)"/>
<path d="M0 0 C0.99 0 1.98 0 3 0 C3 0.66 3 1.32 3 2 C3.66 2 4.32 2 5 2 C5.66 3.65 6.32 5.3 7 7 C8.32 7 9.64 7 11 7 C11.33 8.98 11.66 10.96 12 13 C7.04741286 9.22660027 3.56320845 5.09210286 0 0 Z " fill="#FEEED2" transform="translate(401,111)"/>
<path d="M0 0 C0.33 0 0.66 0 1 0 C1.33 5.28 1.66 10.56 2 16 C-2.5 10.375 -2.5 10.375 -4 7 C-3.34 7 -2.68 7 -2 7 C-2 7.66 -2 8.32 -2 9 C-1.34 9 -0.68 9 0 9 C0 6.03 0 3.06 0 0 Z " fill="#E79E4F" transform="translate(119,533)"/>
<path d="M0 0 C1.32 0.33 2.64 0.66 4 1 C-0.455 6.94 -0.455 6.94 -5 13 C-5.33 11.68 -5.66 10.36 -6 9 C-5.34 9 -4.68 9 -4 9 C-3.896875 8.360625 -3.79375 7.72125 -3.6875 7.0625 C-3.460625 6.381875 -3.23375 5.70125 -3 5 C-2.01 4.67 -1.02 4.34 0 4 C0 2.68 0 1.36 0 0 Z " fill="#E78820" transform="translate(477,499)"/>
<path d="M0 0 C1.32 0.33 2.64 0.66 4 1 C4.33 2.98 4.66 4.96 5 7 C5.66 7 6.32 7 7 7 C9.125 11.625 9.125 11.625 8 15 C6.66121428 12.8782637 5.32884524 10.75294812 4 8.625 C3.6184375 8.02171875 3.236875 7.4184375 2.84375 6.796875 C0 2.2265625 0 2.2265625 0 0 Z " fill="#E78B24" transform="translate(94,506)"/>
<path d="M0 0 C0.33 0 0.66 0 1 0 C1 1.98 1 3.96 1 6 C0.34 6 -0.32 6 -1 6 C-1.12375 6.5775 -1.2475 7.155 -1.375 7.75 C-2.00648824 10.02335767 -2.88858191 11.9253529 -4 14 C-4.66 14 -5.32 14 -6 14 C-4.50829734 9.0276578 -2.39542583 4.58154261 0 0 Z " fill="#E99538" transform="translate(74,350)"/>
<path d="M0 0 C1.11375 0.495 1.11375 0.495 2.25 1 C5.13883312 2.22782871 5.13883312 2.22782871 9 2 C9.66 2.33 10.32 2.66 11 3 C11 4.98 11 6.96 11 9 C6.7973607 6.36113346 3.43361902 3.63559661 0 0 Z " fill="#E88B24" transform="translate(379,377)"/>
<path d="M0 0 C0.33 0.99 0.66 1.98 1 3 C-2.03797468 8.62587904 -2.03797468 8.62587904 -5.25 9.875 C-5.8275 9.91625 -6.405 9.9575 -7 10 C-2.85714286 2.42857143 -2.85714286 2.42857143 0 0 Z " fill="#E98F27" transform="translate(252,176)"/>
<path d="M0 0 C0.66 0.33 1.32 0.66 2 1 C0.20578369 5.0369867 -1.20551875 7.64480474 -5 10 C-5.66 9.34 -6.32 8.68 -7 8 C-6.34 7.01 -5.68 6.02 -5 5 C-4.34 5 -3.68 5 -3 5 C-1.3553326 2.53673288 -1.3553326 2.53673288 0 0 Z " fill="#5B5A8B" transform="translate(1332,829)"/>
<path d="M0 0 C0.33 0 0.66 0 1 0 C0.03644647 11.52164009 0.03644647 11.52164009 -1 17 C-1.66 17 -2.32 17 -3 17 C-3.25426031 10.77062247 -1.95210229 5.85630686 0 0 Z " fill="#6D6B93" transform="translate(1376,765)"/>
<path d="M0 0 C1.32 0.66 2.64 1.32 4 2 C3.01 2.495 3.01 2.495 2 3 C2 3.66 2 4.32 2 5 C4.97 5.495 4.97 5.495 8 6 C5.83032311 6.95465783 4.43671207 7.14401212 2.17578125 6.3984375 C0.4315257 5.64129615 -1.28627131 4.82390802 -3 4 C-2.34 3.67 -1.68 3.34 -1 3 C-0.67 2.01 -0.34 1.02 0 0 Z " fill="#74719D" transform="translate(1489,841)"/>
<path d="M0 0 C0.33 0 0.66 0 1 0 C1.05406122 1.93719378 1.09282025 3.87481921 1.125 5.8125 C1.14820313 6.89144531 1.17140625 7.97039063 1.1953125 9.08203125 C1 12 1 12 -1 15 C-2.01058283 11.76462662 -1.99200982 9.17014394 -1.625 5.8125 C-1.53476563 4.93207031 -1.44453125 4.05164063 -1.3515625 3.14453125 C-1 1 -1 1 0 0 Z " fill="#656389" transform="translate(1148,814)"/>
<path d="M0 0 C0 0.66 0 1.32 0 2 C1.65 1.67 3.3 1.34 5 1 C2.57418129 3.42581871 0.92566131 3.96355664 -2.48046875 4.09765625 C-3.37378906 4.08605469 -4.26710938 4.07445312 -5.1875 4.0625 C-6.53908203 4.04896484 -6.53908203 4.04896484 -7.91796875 4.03515625 C-8.60503906 4.02355469 -9.29210937 4.01195312 -10 4 C-10 3.67 -10 3.34 -10 3 C-8.02 3 -6.04 3 -4 3 C-4 2.34 -4 1.68 -4 1 C-2 0 -2 0 0 0 Z " fill="#6E6E96" transform="translate(989,844)"/>
<path d="M0 0 C0.33 1.32 0.66 2.64 1 4 C0.34 4 -0.32 4 -1 4 C-1 4.66 -1 5.32 -1 6 C-0.01 5.67 0.98 5.34 2 5 C1.67 7.64 1.34 10.28 1 13 C-1.45823172 9.31265242 -2.01242616 6.30300029 -3 2 C-2.01 1.34 -1.02 0.68 0 0 Z " fill="#5E5B8D" transform="translate(501,638)"/>
<path d="M0 0 C0.33 0.66 0.66 1.32 1 2 C-0.37707107 5.14759102 -1.56159764 7.56159764 -4 10 C-4.99 9.67 -5.98 9.34 -7 9 C-4.69 6.03 -2.38 3.06 0 0 Z " fill="#FDE7C4" transform="translate(158,402)"/>
<path d="M0 0 C0.99 0.33 1.98 0.66 3 1 C0.69 3.64 -1.62 6.28 -4 9 C-5 5 -5 5 -4 3 C-2.68 3 -1.36 3 0 3 C0 2.01 0 1.02 0 0 Z " fill="#FEF0D5" transform="translate(113,297)"/>
<path d="M0 0 C0.66 0.33 1.32 0.66 2 1 C-2.30769231 6.78461538 -2.30769231 6.78461538 -5.8125 7.875 C-6.8953125 7.936875 -6.8953125 7.936875 -8 8 C-5.58443874 4.80800833 -3.31996462 2.25283313 0 0 Z " fill="#E68C27" transform="translate(146,270)"/>
<path d="M0 0 C2.631724 2.45627573 4.81527263 4.55352037 6 8 C5.625 10.25 5.625 10.25 5 12 C1.94063363 8.24532309 0 4.91886939 0 0 Z " fill="#6C6992" transform="translate(1530,790)"/>
<path d="M0 0 C4.43090471 1.20842856 6.98112756 2.51668565 10 6 C7.625 6.1875 7.625 6.1875 5 6 C4.34 5.01 3.68 4.02 3 3 C2.01 3.33 1.02 3.66 0 4 C0 2.68 0 1.36 0 0 Z " fill="#64628D" transform="translate(516,735)"/>
<path d="M0 0 C3.34944548 5.02416822 3.09834146 9.09951257 3 15 C0.25217311 9.68753468 -0.09669018 5.89810092 0 0 Z " fill="#FCE0B9" transform="translate(435,464)"/>
<path d="M0 0 C0.66 0 1.32 0 2 0 C1.01 4.95 0.02 9.9 -1 15 C-1.33 15 -1.66 15 -2 15 C-2.21755666 9.5610835 -2.10428384 5.12919186 0 0 Z " fill="#E68E2B" transform="translate(517,411)"/>
<path d="M0 0 C2 3 2 3 1.375 6.5625 C0 10 0 10 -2.0859375 11.21484375 C-3.03339844 11.60349609 -3.03339844 11.60349609 -4 12 C-3.52309796 10.37433394 -3.04340334 8.74948689 -2.5625 7.125 C-2.29566406 6.22007812 -2.02882813 5.31515625 -1.75390625 4.3828125 C-1 2 -1 2 0 0 Z " fill="#EC9940" transform="translate(275,130)"/>
<path d="M0 0 C1.21940083 3.6582025 0.63709904 4.58448676 -0.8125 8.0625 C-1.16957031 8.94035156 -1.52664063 9.81820313 -1.89453125 10.72265625 C-3 13 -3 13 -5 15 C-4.34 11.7 -3.68 8.4 -3 5 C-2.34 5 -1.68 5 -1 5 C-0.67 3.35 -0.34 1.7 0 0 Z " fill="#E69132" transform="translate(508,444)"/>
<path d="M0 0 C2.55803184 3.83704776 4.34505724 7.75712791 3.625 12.4375 C3.41875 12.953125 3.2125 13.46875 3 14 C0.31907309 11.31907309 0.61329743 9.60832637 0.375 5.875 C0.30023438 4.77929688 0.22546875 3.68359375 0.1484375 2.5546875 C0.09945312 1.71164062 0.05046875 0.86859375 0 0 Z " fill="#FBDAAD" transform="translate(64,435)"/>
<path d="M0 0 C3.81684226 1.55500981 6.19195732 4.03595495 9 7 C6.03 6.505 6.03 6.505 3 6 C3 5.34 3 4.68 3 4 C2.34 4 1.68 4 1 4 C0.67 2.68 0.34 1.36 0 0 Z " fill="#E78A21" transform="translate(345,63)"/>
<path d="M0 0 C0.33 1.32 0.66 2.64 1 4 C0.01 4.66 -0.98 5.32 -2 6 C-3.5 4.625 -3.5 4.625 -5 3 C-5 2.34 -5 1.68 -5 1 C-2 0 -2 0 0 0 Z " fill="#5B598A" transform="translate(1092,834)"/>
<path d="M0 0 C1.32 0.99 2.64 1.98 4 3 C2.68 4.32 1.36 5.64 0 7 C-0.66 5.68 -1.32 4.36 -2 3 C-1.34 2.01 -0.68 1.02 0 0 Z " fill="#5B5A8D" transform="translate(386,831)"/>
<path d="M0 0 C-4.75 4.875 -4.75 4.875 -7 6 C-7 4.35 -7 2.7 -7 1 C-4.53721199 -0.231394 -2.7204945 -0.07159196 0 0 Z " fill="#EA8A21" transform="translate(183,379)"/>
<path d="M0 0 C3.36338044 3.36338044 4 6.28835716 4 11 C3.01 10.67 2.02 10.34 1 10 C0.67 6.7 0.34 3.4 0 0 Z " fill="#E8953B" transform="translate(504,269)"/>
<path d="M0 0 C4.81938524 -0.23509196 8.46298506 0.54815522 13 2 C13 2.33 13 2.66 13 3 C8.07872966 3.16682272 4.49656104 3.24828052 0 1 C0 0.67 0 0.34 0 0 Z " fill="#727195" transform="translate(241,874)"/>
<path d="M0 0 C3 1 3 1 4 2.9375 C4.33 3.618125 4.66 4.29875 5 5 C5.99 5.66 6.98 6.32 8 7 C1.25 6.25 1.25 6.25 -1 4 C-0.625 1.875 -0.625 1.875 0 0 Z " fill="#7A78A2" transform="translate(961,841)"/>
<path d="M0 0 C1.90389849 2.85584773 2.69462177 4.9311762 3.625 8.1875 C4.01558594 9.53908203 4.01558594 9.53908203 4.4140625 10.91796875 C4.60742188 11.60503906 4.80078125 12.29210937 5 13 C1.59346259 9.7707892 0.0871366 6.96057354 -0.125 2.1875 C-0.08375 1.465625 -0.0425 0.74375 0 0 Z " fill="#74729A" transform="translate(498,578)"/>
<path d="M0 0 C0.66 0.33 1.32 0.66 2 1 C-1.32307692 5.8 -1.32307692 5.8 -4.75 6.8125 C-5.4925 6.874375 -6.235 6.93625 -7 7 C-4.78071806 4.09197539 -3.07030857 2.04687238 0 0 Z " fill="#248FD0" transform="translate(196,414)"/>
<path d="M0 0 C0 3.97054597 -1.3139381 5.16471244 -4 8 C-6.140625 8.6484375 -6.140625 8.6484375 -8 9 C-7.04270084 7.87411986 -6.08412105 6.7493285 -5.125 5.625 C-4.59132812 4.99851562 -4.05765625 4.37203125 -3.5078125 3.7265625 C-2.38567993 2.44163349 -1.20628025 1.20628025 0 0 Z " fill="#FFEFD2" transform="translate(169,391)"/>
<path d="M0 0 C1.49080078 0.02707031 1.49080078 0.02707031 3.01171875 0.0546875 C3.77097656 0.07789063 4.53023437 0.10109375 5.3125 0.125 C5.3125 0.455 5.3125 0.785 5.3125 1.125 C3.73163952 1.49004603 2.14766093 1.84160506 0.5625 2.1875 C-0.31921875 2.38472656 -1.2009375 2.58195312 -2.109375 2.78515625 C-4.67429028 3.12325872 -6.25841639 2.93658635 -8.6875 2.125 C-5.26655758 -0.15562828 -4.00562778 -0.09425007 0 0 Z " fill="#DCFBFE" transform="translate(250.6875,392.875)"/>
<path d="M0 0 C0.66 0.33 1.32 0.66 2 1 C0.10595266 4.34243648 -0.94091591 4.97997149 -4.6875 6.25 C-6.3271875 6.62125 -6.3271875 6.62125 -8 7 C-5.42215154 4.35247996 -3.08351902 2.05567935 0 0 Z " fill="#FEE7C6" transform="translate(190,374)"/>
<path d="M0 0 C0.99 0.33 1.98 0.66 3 1 C1.8803014 2.00593243 0.7540588 3.0045849 -0.375 4 C-1.00148437 4.556875 -1.62796875 5.11375 -2.2734375 5.6875 C-4 7 -4 7 -6 7 C-6 6.01 -6 5.02 -6 4 C-5.01 4 -4.02 4 -3 4 C-3 3.34 -3 2.68 -3 2 C-2.01 1.34 -1.02 0.68 0 0 Z " fill="#FEEED2" transform="translate(170,249)"/>
<path d="M0 0 C2 2 2 2 2.125 5.625 C2.08375 6.73875 2.0425 7.8525 2 9 C1.01 9.33 0.02 9.66 -1 10 C-0.67 6.7 -0.34 3.4 0 0 Z " fill="#D6D6EB" transform="translate(901,763)"/>
<path d="M0 0 C0.99 0.33 1.98 0.66 3 1 C2.855625 1.495 2.71125 1.99 2.5625 2.5 C1.78005593 5.97752922 1.41305236 9.45955123 1 13 C0.67 13 0.34 13 0 13 C0 8.71 0 4.42 0 0 Z " fill="#6B6A9B" transform="translate(491,621)"/>
<path d="M0 0 C-2.96178773 1.67110042 -5.37071192 2.32682752 -8.75 2.625 C-9.54921875 2.69976563 -10.3484375 2.77453125 -11.171875 2.8515625 C-11.77515625 2.90054688 -12.3784375 2.94953125 -13 3 C-8.16353702 -0.22430866 -5.73060016 -0.09242903 0 0 Z " fill="#E4FCFF" transform="translate(234,594)"/>
<path d="M0 0 C3.37503669 1.1858237 5.64722731 2.27573689 8 5 C2.25 5.125 2.25 5.125 0 4 C0 2.68 0 1.36 0 0 Z " fill="#188CD6" transform="translate(356,410)"/>
<path d="M0 0 C0.66 0.33 1.32 0.66 2 1 C1.67 1.99 1.34 2.98 1 4 C0.01 4 -0.98 4 -2 4 C-2 4.99 -2 5.98 -2 7 C-3.32 6.67 -4.64 6.34 -6 6 C-4.02 4.02 -2.04 2.04 0 0 Z " fill="#E98F31" transform="translate(125,288)"/>
<path d="M0 0 C0.66 1.32 1.32 2.64 2 4 C-0.375 5.5625 -0.375 5.5625 -3 7 C-3.66 6.67 -4.32 6.34 -5 6 C-3.35 4.02 -1.7 2.04 0 0 Z " fill="#EC912E" transform="translate(236,195)"/>
<path d="M0 0 C2.475 0.495 2.475 0.495 5 1 C5.33 2.98 5.66 4.96 6 7 C1.125 3.375 1.125 3.375 0 0 Z " fill="#FEF3DB" transform="translate(425,137)"/>
<path d="M0 0 C0.33 0.99 0.66 1.98 1 3 C1.99 3.33 2.98 3.66 4 4 C4 4.66 4 5.32 4 6 C0.62496331 4.8141763 -1.64722731 3.72426311 -4 1 C-2.68 0.67 -1.36 0.34 0 0 Z " fill="#FEEDCF" transform="translate(316,38)"/>
<path d="M0 0 C0.99 0 1.98 0 3 0 C3 0.66 3 1.32 3 2 C3.99 2.33 4.98 2.66 6 3 C6 3.66 6 4.32 6 5 C6.66 5 7.32 5 8 5 C7.67 5.66 7.34 6.32 7 7 C5.82780457 6.21654285 4.66236332 5.42297164 3.5 4.625 C2.8503125 4.18414063 2.200625 3.74328125 1.53125 3.2890625 C1.0259375 2.86367188 0.520625 2.43828125 0 2 C0 1.34 0 0.68 0 0 Z " fill="#64628A" transform="translate(1496,797)"/>
<path d="M0 0 C2.0625 1.6875 2.0625 1.6875 4 4 C3.875 6.6875 3.875 6.6875 3 9 C2.01 9.495 2.01 9.495 1 10 C1.020625 9.0925 1.04125 8.185 1.0625 7.25 C1.0110245 4.57327412 0.7784983 2.53011948 0 0 Z " fill="#656293" transform="translate(1529,739)"/>
<path d="M0 0 C0.33 0.66 0.66 1.32 1 2 C-0.14186589 4.94982021 -1.67281553 6.88437775 -4 9 C-4.66 8.67 -5.32 8.34 -6 8 C-4.02 5.36 -2.04 2.72 0 0 Z " fill="#238ED1" transform="translate(184,425)"/>
<path d="M0 0 C2.475 0.99 2.475 0.99 5 2 C4.01 2.33 3.02 2.66 2 3 C2 4.98 2 6.96 2 9 C-0.29013653 5.5647952 -0.17842973 4.014669 0 0 Z " fill="#E29C4E" transform="translate(279,22)"/>
<path d="M0 0 C4.51720311 -0.36625971 4.51720311 -0.36625971 6.8125 1.375 C8 3 8 3 8 5 C4.62496331 3.8141763 2.35277269 2.72426311 0 0 Z " fill="#66648D" transform="translate(184,852)"/>
<path d="M0 0 C1.32 0 2.64 0 4 0 C4 0.66 4 1.32 4 2 C0.53846154 5 0.53846154 5 -2 5 C-1.125 1.125 -1.125 1.125 0 0 Z " fill="#5F5D8C" transform="translate(366,852)"/>
<path d="M0 0 C2.76223278 2.76223278 2.57856291 5.20706617 3 9 C2.67 8.34 2.34 7.68 2 7 C1.34 7 0.68 7 0 7 C-0.93423645 3.98968256 -1.04449911 3.13349732 0 0 Z " fill="#FEEDCF" transform="translate(429,445)"/>
<path d="M0 0 C0.6875 1.6875 0.6875 1.6875 1 4 C-0.3125 6.75 -0.3125 6.75 -2 9 C-2.66 9 -3.32 9 -4 9 C-2.94124926 5.59687262 -1.99097846 2.98646769 0 0 Z " fill="#FDE6C1" transform="translate(143,423)"/>
<path d="M0 0 C2.31 0.33 4.62 0.66 7 1 C3.25 3 3.25 3 1 3 C0.67 3.99 0.34 4.98 0 6 C0 4.02 0 2.04 0 0 Z " fill="#EA8310" transform="translate(281,25)"/>
<path d="M0 0 C0.66 0 1.32 0 2 0 C2.66 2.31 3.32 4.62 4 7 C3.34 7.66 2.68 8.32 2 9 C1.34 6.03 0.68 3.06 0 0 Z " fill="#625F8C" transform="translate(1471,769)"/>
<path d="M0 0 C0.33 0 0.66 0 1 0 C1.25 2.25 1.25 2.25 1 5 C-1 7.3125 -1 7.3125 -3 9 C-3 5.30581799 -1.71820705 3.22163822 0 0 Z " fill="#FEECCE" transform="translate(498,470)"/>
<path d="M0 0 C0.99 0.33 1.98 0.66 3 1 C2.01 1.33 1.02 1.66 0 2 C-0.33 2.99 -0.66 3.98 -1 5 C-2.32 4.34 -3.64 3.68 -5 3 C-2.6875 1.4375 -2.6875 1.4375 0 0 Z " fill="#2091D2" transform="translate(208,407)"/>
<path d="M0 0 C1.32 0 2.64 0 4 0 C4 0.66 4 1.32 4 2 C5.32 2 6.64 2 8 2 C8 2.99 8 3.98 8 5 C4.62496331 3.8141763 2.35277269 2.72426311 0 0 Z " fill="#D0F2FC" transform="translate(353,407)"/>
<path d="M0 0 C-0.375 1.9375 -0.375 1.9375 -1 4 C-1.99 4.495 -1.99 4.495 -3 5 C-3.99 4.34 -4.98 3.68 -6 3 C-2.25 0 -2.25 0 0 0 Z " fill="#E8932F" transform="translate(166,256)"/>
<path d="M0 0 C0.33 0.99 0.66 1.98 1 3 C-0.32 3.99 -1.64 4.98 -3 6 C-3.66 5.34 -4.32 4.68 -5 4 C-3.35 2.68 -1.7 1.36 0 0 Z " fill="#EA9331" transform="translate(227,205)"/>
<path d="M0 0 C2.31 1.98 4.62 3.96 7 6 C6.01 6.495 6.01 6.495 5 7 C4.01 6.67 3.02 6.34 2 6 C0.8125 2.9375 0.8125 2.9375 0 0 Z " fill="#EA9437" transform="translate(392,103)"/>
</svg>
